M48
; DRILL file {KiCad (5.1.4)-1} date 30/10/2019 21:39:04
; FORMAT={-:-/ absolute / inch / decimal}
; #@! TF.CreationDate,2019-10-30T21:39:04+01:00
; #@! TF.GenerationSoftware,Kicad,Pcbnew,(5.1.4)-1
FMAT,2
INCH
T1C0.0315
T2C0.0394
T3C0.0433
T4C0.0591
%
G90
G05
T1
X4.8425Y-2.815
X5.1425Y-2.815
X4.589Y-3.7
X4.889Y-3.7
X6.95Y-2.35
X6.95Y-2.65
X7.1Y-2.35
X7.1Y-2.65
X7.1Y-3.35
X7.4Y-3.35
X5.3Y-3.6
X5.3Y-3.7
X5.3Y-3.8
X5.3Y-3.9
X5.3Y-4.0
X5.3Y-4.1
X5.3Y-4.2
X5.3Y-4.3
X5.3Y-4.4
X5.3Y-4.5
X5.3Y-4.6
X5.3Y-4.7
X5.3Y-4.8
X5.3Y-4.9
X5.3Y-5.0
X5.9Y-3.6
X5.9Y-3.7
X5.9Y-3.8
X5.9Y-3.9
X5.9Y-4.0
X5.9Y-4.1
X5.9Y-4.2
X5.9Y-4.3
X5.9Y-4.4
X5.9Y-4.5
X5.9Y-4.6
X5.9Y-4.7
X5.9Y-4.8
X5.9Y-4.9
X5.9Y-5.0
X6.5Y-2.9
X6.5Y-3.0
X6.5Y-3.1
X6.5Y-3.2
X6.5Y-3.3
X6.5Y-3.4
X6.5Y-3.5
X6.5Y-3.6
X6.8Y-2.9
X6.8Y-3.0
X6.8Y-3.1
X6.8Y-3.2
X6.8Y-3.3
X6.8Y-3.4
X6.8Y-3.5
X6.8Y-3.6
X5.0Y-4.5079
X5.0Y-4.6063
X5.45Y-2.35
X5.45Y-2.65
X7.1Y-3.8
X7.4Y-3.8
X6.5Y-4.25
X6.5Y-4.35
X6.5Y-4.45
X6.5Y-4.55
X6.5Y-4.65
X6.5Y-4.75
X6.5Y-4.85
X6.5Y-4.95
X6.8Y-4.25
X6.8Y-4.35
X6.8Y-4.45
X6.8Y-4.55
X6.8Y-4.65
X6.8Y-4.75
X6.8Y-4.85
X6.8Y-4.95
X7.5591Y-5.5512
X7.5591Y-5.6496
X4.3Y-4.0748
X4.3Y-4.3748
X4.4Y-4.0748
X4.4Y-4.3748
X4.5Y-4.0748
X4.5Y-4.3748
X4.6Y-4.0748
X4.6Y-4.3748
X4.7Y-4.0748
X4.7Y-4.3748
X4.8Y-4.0748
X4.8Y-4.3748
X4.9Y-4.0748
X4.9Y-4.3748
X5.0Y-4.0748
X5.0Y-4.3748
X6.6Y-3.8
X6.6984Y-3.8
X6.2Y-2.35
X6.2Y-2.65
X7.1Y-4.7
X7.4Y-4.7
X4.0748Y-2.815
X4.3748Y-2.815
X5.75Y-2.35
X5.75Y-2.65
X7.1Y-3.05
X7.4Y-3.05
X6.35Y-2.35
X6.35Y-2.65
X4.8378Y-4.7441
X5.1378Y-4.7441
X7.1Y-2.9
X7.4Y-2.9
X5.0Y-2.35
X5.0Y-2.65
X7.1Y-4.25
X7.4Y-4.25
X7.1Y-3.5
X7.4Y-3.5
X5.3Y-2.35
X5.3Y-2.65
X4.5669Y-2.6378
X4.5669Y-2.8378
X4.6669Y-2.7378
X5.6Y-2.35
X5.6Y-2.65
X7.1Y-5.15
X7.4Y-5.15
X7.2244Y-5.5512
X7.2244Y-5.6496
X7.1Y-4.1
X7.4Y-4.1
X6.6001Y-5.146
X6.6985Y-5.146
X6.8Y-2.35
X6.8Y-2.65
X4.252Y-3.3661
X4.252Y-3.4646
X7.1Y-3.65
X7.4Y-3.65
X6.65Y-2.35
X6.65Y-2.65
X6.5Y-2.35
X6.5Y-2.65
X4.85Y-2.35
X4.85Y-2.65
X7.1Y-4.55
X7.4Y-4.55
X6.05Y-2.35
X6.05Y-2.65
X5.15Y-2.35
X5.15Y-2.65
X7.1Y-5.0
X7.4Y-5.0
X7.1Y-3.2
X7.4Y-3.2
X6.0827Y-5.5315
X6.0827Y-5.6811
X4.8378Y-4.8819
X5.1378Y-4.8819
X7.1Y-4.85
X7.4Y-4.85
X5.9Y-2.35
X5.9Y-2.65
X7.1016Y-4.4
X7.4016Y-4.4
X7.1Y-3.95
X7.4Y-3.95
X6.4567Y-5.5512
X6.4567Y-5.6496
X4.5885Y-3.5665
X4.8885Y-3.5665
X4.3307Y-2.9528
X4.6307Y-2.9528
T2
X4.163Y-5.5895
X4.163Y-5.6895
X6.0827Y-4.0945
X6.1827Y-4.0945
X7.7Y-3.25
X7.7Y-3.35
X7.7Y-3.45
X7.7Y-3.55
X7.7Y-3.65
X7.7Y-3.75
X7.7Y-3.85
X7.7Y-3.95
X7.7Y-4.05
X7.7Y-4.15
X7.7Y-4.25
X7.7Y-4.35
X7.7Y-4.45
X7.7Y-4.55
X7.7Y-4.65
X7.7Y-4.75
X7.7Y-3.0
X5.374Y-2.815
X4.1339Y-2.3228
X4.4331Y-2.3228
X5.2Y-2.1
X5.3Y-2.1
X5.4Y-2.1
X5.5Y-2.1
X5.6Y-2.1
X5.7Y-2.1
X5.8Y-2.1
X5.9Y-2.1
X6.0Y-2.1
X6.1Y-2.1
X6.2Y-2.1
X6.3Y-2.1
X6.4Y-2.1
X6.5Y-2.1
X6.6Y-2.1
X6.7Y-2.1
X4.0945Y-3.3665
X4.0945Y-3.4665
X4.0945Y-3.5665
X4.0945Y-3.6665
X4.0945Y-3.7665
X4.0945Y-3.8665
X4.0945Y-3.9665
X4.0945Y-4.0665
X4.0945Y-4.1665
X4.0945Y-4.2665
X4.0945Y-4.3665
X4.0945Y-4.4665
X4.0945Y-4.5665
X4.0945Y-4.6665
X4.0945Y-4.7665
X4.0945Y-4.8665
X4.1635Y-5.295
X4.2635Y-5.295
X6.1417Y-4.5079
X6.1417Y-4.7047
X6.1417Y-4.8047
X6.1417Y-4.9047
X6.1417Y-5.0047
T3
X5.7185Y-5.458
X5.7185Y-5.758
X6.752Y-5.6299
X6.852Y-5.6299
X6.952Y-5.6299
T4
X4.5162Y-5.5535
X5.406Y-5.5535
T0
M30
