G04 #@! TF.GenerationSoftware,KiCad,Pcbnew,(5.1.4)-1*
G04 #@! TF.CreationDate,2019-10-30T21:39:05+01:00*
G04 #@! TF.ProjectId,Projekt,50726f6a-656b-4742-9e6b-696361645f70,v01*
G04 #@! TF.SameCoordinates,Original*
G04 #@! TF.FileFunction,Legend,Top*
G04 #@! TF.FilePolarity,Positive*
%FSLAX46Y46*%
G04 Gerber Fmt 4.6, Leading zero omitted, Abs format (unit mm)*
G04 Created by KiCad (PCBNEW (5.1.4)-1) date 2019-10-30 21:39:05*
%MOMM*%
%LPD*%
G04 APERTURE LIST*
%ADD10C,0.200000*%
%ADD11C,0.300000*%
%ADD12C,0.010000*%
%ADD13C,0.120000*%
%ADD14C,0.150000*%
%ADD15C,0.152400*%
G04 APERTURE END LIST*
D10*
X103630671Y-146715171D02*
X103773528Y-146762790D01*
X103821147Y-146810409D01*
X103868766Y-146905647D01*
X103868766Y-147048504D01*
X103821147Y-147143742D01*
X103773528Y-147191361D01*
X103678290Y-147238980D01*
X103297338Y-147238980D01*
X103297338Y-146238980D01*
X103630671Y-146238980D01*
X103725909Y-146286600D01*
X103773528Y-146334219D01*
X103821147Y-146429457D01*
X103821147Y-146524695D01*
X103773528Y-146619933D01*
X103725909Y-146667552D01*
X103630671Y-146715171D01*
X103297338Y-146715171D01*
X104725909Y-147238980D02*
X104725909Y-146715171D01*
X104678290Y-146619933D01*
X104583052Y-146572314D01*
X104392576Y-146572314D01*
X104297338Y-146619933D01*
X104725909Y-147191361D02*
X104630671Y-147238980D01*
X104392576Y-147238980D01*
X104297338Y-147191361D01*
X104249719Y-147096123D01*
X104249719Y-147000885D01*
X104297338Y-146905647D01*
X104392576Y-146858028D01*
X104630671Y-146858028D01*
X104725909Y-146810409D01*
X105059242Y-146572314D02*
X105440195Y-146572314D01*
X105202100Y-146238980D02*
X105202100Y-147096123D01*
X105249719Y-147191361D01*
X105344957Y-147238980D01*
X105440195Y-147238980D01*
X105630671Y-146572314D02*
X106011623Y-146572314D01*
X105773528Y-146238980D02*
X105773528Y-147096123D01*
X105821147Y-147191361D01*
X105916385Y-147238980D01*
X106011623Y-147238980D01*
X106725909Y-147191361D02*
X106630671Y-147238980D01*
X106440195Y-147238980D01*
X106344957Y-147191361D01*
X106297338Y-147096123D01*
X106297338Y-146715171D01*
X106344957Y-146619933D01*
X106440195Y-146572314D01*
X106630671Y-146572314D01*
X106725909Y-146619933D01*
X106773528Y-146715171D01*
X106773528Y-146810409D01*
X106297338Y-146905647D01*
X107202100Y-147238980D02*
X107202100Y-146572314D01*
X107202100Y-146762790D02*
X107249719Y-146667552D01*
X107297338Y-146619933D01*
X107392576Y-146572314D01*
X107487814Y-146572314D01*
X107725909Y-146572314D02*
X107964004Y-147238980D01*
X108202100Y-146572314D02*
X107964004Y-147238980D01*
X107868766Y-147477076D01*
X107821147Y-147524695D01*
X107725909Y-147572314D01*
X113110971Y-71313442D02*
X113158590Y-71170585D01*
X113206209Y-71122966D01*
X113301447Y-71075347D01*
X113444304Y-71075347D01*
X113539542Y-71122966D01*
X113587161Y-71170585D01*
X113634780Y-71265823D01*
X113634780Y-71646776D01*
X112634780Y-71646776D01*
X112634780Y-71313442D01*
X112682400Y-71218204D01*
X112730019Y-71170585D01*
X112825257Y-71122966D01*
X112920495Y-71122966D01*
X113015733Y-71170585D01*
X113063352Y-71218204D01*
X113110971Y-71313442D01*
X113110971Y-71646776D01*
X113539542Y-70075347D02*
X113587161Y-70122966D01*
X113634780Y-70265823D01*
X113634780Y-70361061D01*
X113587161Y-70503919D01*
X113491923Y-70599157D01*
X113396685Y-70646776D01*
X113206209Y-70694395D01*
X113063352Y-70694395D01*
X112872876Y-70646776D01*
X112777638Y-70599157D01*
X112682400Y-70503919D01*
X112634780Y-70361061D01*
X112634780Y-70265823D01*
X112682400Y-70122966D01*
X112730019Y-70075347D01*
X112634780Y-69742014D02*
X112634780Y-69122966D01*
X113015733Y-69456300D01*
X113015733Y-69313442D01*
X113063352Y-69218204D01*
X113110971Y-69170585D01*
X113206209Y-69122966D01*
X113444304Y-69122966D01*
X113539542Y-69170585D01*
X113587161Y-69218204D01*
X113634780Y-69313442D01*
X113634780Y-69599157D01*
X113587161Y-69694395D01*
X113539542Y-69742014D01*
X112634780Y-68789633D02*
X112634780Y-68170585D01*
X113015733Y-68503919D01*
X113015733Y-68361061D01*
X113063352Y-68265823D01*
X113110971Y-68218204D01*
X113206209Y-68170585D01*
X113444304Y-68170585D01*
X113539542Y-68218204D01*
X113587161Y-68265823D01*
X113634780Y-68361061D01*
X113634780Y-68646776D01*
X113587161Y-68742014D01*
X113539542Y-68789633D01*
X112634780Y-67837252D02*
X112634780Y-67170585D01*
X113634780Y-67599157D01*
D11*
X170803500Y-146423771D02*
X170089214Y-146423771D01*
X170089214Y-144923771D01*
X171303500Y-146423771D02*
X171303500Y-144923771D01*
X171803500Y-145995200D01*
X172303500Y-144923771D01*
X172303500Y-146423771D01*
X172874928Y-144923771D02*
X173874928Y-144923771D01*
X173232071Y-146423771D01*
X174660642Y-145566628D02*
X174517785Y-145495200D01*
X174446357Y-145423771D01*
X174374928Y-145280914D01*
X174374928Y-145209485D01*
X174446357Y-145066628D01*
X174517785Y-144995200D01*
X174660642Y-144923771D01*
X174946357Y-144923771D01*
X175089214Y-144995200D01*
X175160642Y-145066628D01*
X175232071Y-145209485D01*
X175232071Y-145280914D01*
X175160642Y-145423771D01*
X175089214Y-145495200D01*
X174946357Y-145566628D01*
X174660642Y-145566628D01*
X174517785Y-145638057D01*
X174446357Y-145709485D01*
X174374928Y-145852342D01*
X174374928Y-146138057D01*
X174446357Y-146280914D01*
X174517785Y-146352342D01*
X174660642Y-146423771D01*
X174946357Y-146423771D01*
X175089214Y-146352342D01*
X175160642Y-146280914D01*
X175232071Y-146138057D01*
X175232071Y-145852342D01*
X175160642Y-145709485D01*
X175089214Y-145638057D01*
X174946357Y-145566628D01*
X176160642Y-144923771D02*
X176303500Y-144923771D01*
X176446357Y-144995200D01*
X176517785Y-145066628D01*
X176589214Y-145209485D01*
X176660642Y-145495200D01*
X176660642Y-145852342D01*
X176589214Y-146138057D01*
X176517785Y-146280914D01*
X176446357Y-146352342D01*
X176303500Y-146423771D01*
X176160642Y-146423771D01*
X176017785Y-146352342D01*
X175946357Y-146280914D01*
X175874928Y-146138057D01*
X175803500Y-145852342D01*
X175803500Y-145495200D01*
X175874928Y-145209485D01*
X175946357Y-145066628D01*
X176017785Y-144995200D01*
X176160642Y-144923771D01*
X178017785Y-144923771D02*
X177303500Y-144923771D01*
X177232071Y-145638057D01*
X177303500Y-145566628D01*
X177446357Y-145495200D01*
X177803500Y-145495200D01*
X177946357Y-145566628D01*
X178017785Y-145638057D01*
X178089214Y-145780914D01*
X178089214Y-146138057D01*
X178017785Y-146280914D01*
X177946357Y-146352342D01*
X177803500Y-146423771D01*
X177446357Y-146423771D01*
X177303500Y-146352342D01*
X177232071Y-146280914D01*
D10*
X125006242Y-141101771D02*
X124672909Y-141101771D01*
X124672909Y-141625580D02*
X124672909Y-140625580D01*
X125149100Y-140625580D01*
X125958623Y-140958914D02*
X125958623Y-141625580D01*
X125530052Y-140958914D02*
X125530052Y-141482723D01*
X125577671Y-141577961D01*
X125672909Y-141625580D01*
X125815766Y-141625580D01*
X125911004Y-141577961D01*
X125958623Y-141530342D01*
X126387195Y-141577961D02*
X126482433Y-141625580D01*
X126672909Y-141625580D01*
X126768147Y-141577961D01*
X126815766Y-141482723D01*
X126815766Y-141435104D01*
X126768147Y-141339866D01*
X126672909Y-141292247D01*
X126530052Y-141292247D01*
X126434814Y-141244628D01*
X126387195Y-141149390D01*
X126387195Y-141101771D01*
X126434814Y-141006533D01*
X126530052Y-140958914D01*
X126672909Y-140958914D01*
X126768147Y-141006533D01*
X127625290Y-141577961D02*
X127530052Y-141625580D01*
X127339576Y-141625580D01*
X127244338Y-141577961D01*
X127196719Y-141482723D01*
X127196719Y-141101771D01*
X127244338Y-141006533D01*
X127339576Y-140958914D01*
X127530052Y-140958914D01*
X127625290Y-141006533D01*
X127672909Y-141101771D01*
X127672909Y-141197009D01*
X127196719Y-141292247D01*
X106872328Y-61726771D02*
X107015185Y-61774390D01*
X107062804Y-61822009D01*
X107110423Y-61917247D01*
X107110423Y-62060104D01*
X107062804Y-62155342D01*
X107015185Y-62202961D01*
X106919947Y-62250580D01*
X106538995Y-62250580D01*
X106538995Y-61250580D01*
X106872328Y-61250580D01*
X106967566Y-61298200D01*
X107015185Y-61345819D01*
X107062804Y-61441057D01*
X107062804Y-61536295D01*
X107015185Y-61631533D01*
X106967566Y-61679152D01*
X106872328Y-61726771D01*
X106538995Y-61726771D01*
X107967566Y-61583914D02*
X107967566Y-62250580D01*
X107538995Y-61583914D02*
X107538995Y-62107723D01*
X107586614Y-62202961D01*
X107681852Y-62250580D01*
X107824709Y-62250580D01*
X107919947Y-62202961D01*
X107967566Y-62155342D01*
X108348519Y-61583914D02*
X108872328Y-61583914D01*
X108348519Y-62250580D01*
X108872328Y-62250580D01*
X109158042Y-61583914D02*
X109681852Y-61583914D01*
X109158042Y-62250580D01*
X109681852Y-62250580D01*
X110443757Y-62202961D02*
X110348519Y-62250580D01*
X110158042Y-62250580D01*
X110062804Y-62202961D01*
X110015185Y-62107723D01*
X110015185Y-61726771D01*
X110062804Y-61631533D01*
X110158042Y-61583914D01*
X110348519Y-61583914D01*
X110443757Y-61631533D01*
X110491376Y-61726771D01*
X110491376Y-61822009D01*
X110015185Y-61917247D01*
X110919947Y-62250580D02*
X110919947Y-61583914D01*
X110919947Y-61774390D02*
X110967566Y-61679152D01*
X111015185Y-61631533D01*
X111110423Y-61583914D01*
X111205661Y-61583914D01*
X139075542Y-71467671D02*
X139218400Y-71515290D01*
X139266019Y-71562909D01*
X139313638Y-71658147D01*
X139313638Y-71801004D01*
X139266019Y-71896242D01*
X139218400Y-71943861D01*
X139123161Y-71991480D01*
X138742209Y-71991480D01*
X138742209Y-70991480D01*
X139075542Y-70991480D01*
X139170780Y-71039100D01*
X139218400Y-71086719D01*
X139266019Y-71181957D01*
X139266019Y-71277195D01*
X139218400Y-71372433D01*
X139170780Y-71420052D01*
X139075542Y-71467671D01*
X138742209Y-71467671D01*
X140170780Y-71324814D02*
X140170780Y-71991480D01*
X139742209Y-71324814D02*
X139742209Y-71848623D01*
X139789828Y-71943861D01*
X139885066Y-71991480D01*
X140027923Y-71991480D01*
X140123161Y-71943861D01*
X140170780Y-71896242D01*
X140504114Y-71324814D02*
X140885066Y-71324814D01*
X140646971Y-70991480D02*
X140646971Y-71848623D01*
X140694590Y-71943861D01*
X140789828Y-71991480D01*
X140885066Y-71991480D01*
X141075542Y-71324814D02*
X141456495Y-71324814D01*
X141218400Y-70991480D02*
X141218400Y-71848623D01*
X141266019Y-71943861D01*
X141361257Y-71991480D01*
X141456495Y-71991480D01*
X141932685Y-71991480D02*
X141837447Y-71943861D01*
X141789828Y-71896242D01*
X141742209Y-71801004D01*
X141742209Y-71515290D01*
X141789828Y-71420052D01*
X141837447Y-71372433D01*
X141932685Y-71324814D01*
X142075542Y-71324814D01*
X142170780Y-71372433D01*
X142218400Y-71420052D01*
X142266019Y-71515290D01*
X142266019Y-71801004D01*
X142218400Y-71896242D01*
X142170780Y-71943861D01*
X142075542Y-71991480D01*
X141932685Y-71991480D01*
X142694590Y-71324814D02*
X142694590Y-71991480D01*
X142694590Y-71420052D02*
X142742209Y-71372433D01*
X142837447Y-71324814D01*
X142980304Y-71324814D01*
X143075542Y-71372433D01*
X143123161Y-71467671D01*
X143123161Y-71991480D01*
X143551733Y-71943861D02*
X143646971Y-71991480D01*
X143837447Y-71991480D01*
X143932685Y-71943861D01*
X143980304Y-71848623D01*
X143980304Y-71801004D01*
X143932685Y-71705766D01*
X143837447Y-71658147D01*
X143694590Y-71658147D01*
X143599352Y-71610528D01*
X143551733Y-71515290D01*
X143551733Y-71467671D01*
X143599352Y-71372433D01*
X143694590Y-71324814D01*
X143837447Y-71324814D01*
X143932685Y-71372433D01*
X144456495Y-70991480D02*
X144361257Y-71181957D01*
X146075542Y-71991480D02*
X146075542Y-70991480D01*
X146075542Y-71943861D02*
X145980304Y-71991480D01*
X145789828Y-71991480D01*
X145694590Y-71943861D01*
X145646971Y-71896242D01*
X145599352Y-71801004D01*
X145599352Y-71515290D01*
X145646971Y-71420052D01*
X145694590Y-71372433D01*
X145789828Y-71324814D01*
X145980304Y-71324814D01*
X146075542Y-71372433D01*
X146551733Y-71991480D02*
X146551733Y-71324814D01*
X146551733Y-70991480D02*
X146504114Y-71039100D01*
X146551733Y-71086719D01*
X146599352Y-71039100D01*
X146551733Y-70991480D01*
X146551733Y-71086719D01*
X146932685Y-71324814D02*
X147170780Y-71991480D01*
X147408876Y-71324814D01*
X147789828Y-71991480D02*
X147789828Y-71324814D01*
X147789828Y-70991480D02*
X147742209Y-71039100D01*
X147789828Y-71086719D01*
X147837447Y-71039100D01*
X147789828Y-70991480D01*
X147789828Y-71086719D01*
X148694590Y-71991480D02*
X148694590Y-70991480D01*
X148694590Y-71943861D02*
X148599352Y-71991480D01*
X148408876Y-71991480D01*
X148313638Y-71943861D01*
X148266019Y-71896242D01*
X148218400Y-71801004D01*
X148218400Y-71515290D01*
X148266019Y-71420052D01*
X148313638Y-71372433D01*
X148408876Y-71324814D01*
X148599352Y-71324814D01*
X148694590Y-71372433D01*
X149551733Y-71943861D02*
X149456495Y-71991480D01*
X149266019Y-71991480D01*
X149170780Y-71943861D01*
X149123161Y-71848623D01*
X149123161Y-71467671D01*
X149170780Y-71372433D01*
X149266019Y-71324814D01*
X149456495Y-71324814D01*
X149551733Y-71372433D01*
X149599352Y-71467671D01*
X149599352Y-71562909D01*
X149123161Y-71658147D01*
X150027923Y-71991480D02*
X150027923Y-71324814D01*
X150027923Y-71515290D02*
X150075542Y-71420052D01*
X150123161Y-71372433D01*
X150218400Y-71324814D01*
X150313638Y-71324814D01*
X151551733Y-71991480D02*
X151456495Y-71943861D01*
X151408876Y-71896242D01*
X151361257Y-71801004D01*
X151361257Y-71515290D01*
X151408876Y-71420052D01*
X151456495Y-71372433D01*
X151551733Y-71324814D01*
X151694590Y-71324814D01*
X151789828Y-71372433D01*
X151837447Y-71420052D01*
X151885066Y-71515290D01*
X151885066Y-71801004D01*
X151837447Y-71896242D01*
X151789828Y-71943861D01*
X151694590Y-71991480D01*
X151551733Y-71991480D01*
X152742209Y-71324814D02*
X152742209Y-71991480D01*
X152313638Y-71324814D02*
X152313638Y-71848623D01*
X152361257Y-71943861D01*
X152456495Y-71991480D01*
X152599352Y-71991480D01*
X152694590Y-71943861D01*
X152742209Y-71896242D01*
X153075542Y-71324814D02*
X153456495Y-71324814D01*
X153218400Y-70991480D02*
X153218400Y-71848623D01*
X153266019Y-71943861D01*
X153361257Y-71991480D01*
X153456495Y-71991480D01*
X153789828Y-71324814D02*
X153789828Y-72324814D01*
X153789828Y-71372433D02*
X153885066Y-71324814D01*
X154075542Y-71324814D01*
X154170780Y-71372433D01*
X154218400Y-71420052D01*
X154266019Y-71515290D01*
X154266019Y-71801004D01*
X154218400Y-71896242D01*
X154170780Y-71943861D01*
X154075542Y-71991480D01*
X153885066Y-71991480D01*
X153789828Y-71943861D01*
X155123161Y-71324814D02*
X155123161Y-71991480D01*
X154694590Y-71324814D02*
X154694590Y-71848623D01*
X154742209Y-71943861D01*
X154837447Y-71991480D01*
X154980304Y-71991480D01*
X155075542Y-71943861D01*
X155123161Y-71896242D01*
X155456495Y-71324814D02*
X155837447Y-71324814D01*
X155599352Y-70991480D02*
X155599352Y-71848623D01*
X155646971Y-71943861D01*
X155742209Y-71991480D01*
X155837447Y-71991480D01*
X107221280Y-124291361D02*
X107221280Y-124767552D01*
X106221280Y-124767552D01*
X107126042Y-123386600D02*
X107173661Y-123434219D01*
X107221280Y-123577076D01*
X107221280Y-123672314D01*
X107173661Y-123815171D01*
X107078423Y-123910409D01*
X106983185Y-123958028D01*
X106792709Y-124005647D01*
X106649852Y-124005647D01*
X106459376Y-123958028D01*
X106364138Y-123910409D01*
X106268900Y-123815171D01*
X106221280Y-123672314D01*
X106221280Y-123577076D01*
X106268900Y-123434219D01*
X106316519Y-123386600D01*
X107221280Y-122958028D02*
X106221280Y-122958028D01*
X106221280Y-122719933D01*
X106268900Y-122577076D01*
X106364138Y-122481838D01*
X106459376Y-122434219D01*
X106649852Y-122386600D01*
X106792709Y-122386600D01*
X106983185Y-122434219D01*
X107078423Y-122481838D01*
X107173661Y-122577076D01*
X107221280Y-122719933D01*
X107221280Y-122958028D01*
X106316519Y-121243742D02*
X106268900Y-121196123D01*
X106221280Y-121100885D01*
X106221280Y-120862790D01*
X106268900Y-120767552D01*
X106316519Y-120719933D01*
X106411757Y-120672314D01*
X106506995Y-120672314D01*
X106649852Y-120719933D01*
X107221280Y-121291361D01*
X107221280Y-120672314D01*
X107221280Y-120338980D02*
X106554614Y-119815171D01*
X106554614Y-120338980D02*
X107221280Y-119815171D01*
X107221280Y-118910409D02*
X107221280Y-119481838D01*
X107221280Y-119196123D02*
X106221280Y-119196123D01*
X106364138Y-119291361D01*
X106459376Y-119386600D01*
X106506995Y-119481838D01*
X106221280Y-118053266D02*
X106221280Y-118243742D01*
X106268900Y-118338980D01*
X106316519Y-118386600D01*
X106459376Y-118481838D01*
X106649852Y-118529457D01*
X107030804Y-118529457D01*
X107126042Y-118481838D01*
X107173661Y-118434219D01*
X107221280Y-118338980D01*
X107221280Y-118148504D01*
X107173661Y-118053266D01*
X107126042Y-118005647D01*
X107030804Y-117958028D01*
X106792709Y-117958028D01*
X106697471Y-118005647D01*
X106649852Y-118053266D01*
X106602233Y-118148504D01*
X106602233Y-118338980D01*
X106649852Y-118434219D01*
X106697471Y-118481838D01*
X106792709Y-118529457D01*
X158402400Y-115201604D02*
X158354780Y-115296842D01*
X158354780Y-115439700D01*
X158402400Y-115582557D01*
X158497638Y-115677795D01*
X158592876Y-115725414D01*
X158783352Y-115773033D01*
X158926209Y-115773033D01*
X159116685Y-115725414D01*
X159211923Y-115677795D01*
X159307161Y-115582557D01*
X159354780Y-115439700D01*
X159354780Y-115344461D01*
X159307161Y-115201604D01*
X159259542Y-115153985D01*
X158926209Y-115153985D01*
X158926209Y-115344461D01*
X159354780Y-114725414D02*
X158354780Y-114725414D01*
X159354780Y-114153985D01*
X158354780Y-114153985D01*
X159354780Y-113677795D02*
X158354780Y-113677795D01*
X158354780Y-113439700D01*
X158402400Y-113296842D01*
X158497638Y-113201604D01*
X158592876Y-113153985D01*
X158783352Y-113106366D01*
X158926209Y-113106366D01*
X159116685Y-113153985D01*
X159211923Y-113201604D01*
X159307161Y-113296842D01*
X159354780Y-113439700D01*
X159354780Y-113677795D01*
X194818095Y-78087600D02*
X194722857Y-78039980D01*
X194580000Y-78039980D01*
X194437142Y-78087600D01*
X194341904Y-78182838D01*
X194294285Y-78278076D01*
X194246666Y-78468552D01*
X194246666Y-78611409D01*
X194294285Y-78801885D01*
X194341904Y-78897123D01*
X194437142Y-78992361D01*
X194580000Y-79039980D01*
X194675238Y-79039980D01*
X194818095Y-78992361D01*
X194865714Y-78944742D01*
X194865714Y-78611409D01*
X194675238Y-78611409D01*
X195294285Y-79039980D02*
X195294285Y-78039980D01*
X195865714Y-79039980D01*
X195865714Y-78039980D01*
X196341904Y-79039980D02*
X196341904Y-78039980D01*
X196580000Y-78039980D01*
X196722857Y-78087600D01*
X196818095Y-78182838D01*
X196865714Y-78278076D01*
X196913333Y-78468552D01*
X196913333Y-78611409D01*
X196865714Y-78801885D01*
X196818095Y-78897123D01*
X196722857Y-78992361D01*
X196580000Y-79039980D01*
X196341904Y-79039980D01*
X172642661Y-53395571D02*
X172785519Y-53443190D01*
X172833138Y-53490809D01*
X172880757Y-53586047D01*
X172880757Y-53728904D01*
X172833138Y-53824142D01*
X172785519Y-53871761D01*
X172690280Y-53919380D01*
X172309328Y-53919380D01*
X172309328Y-52919380D01*
X172642661Y-52919380D01*
X172737900Y-52967000D01*
X172785519Y-53014619D01*
X172833138Y-53109857D01*
X172833138Y-53205095D01*
X172785519Y-53300333D01*
X172737900Y-53347952D01*
X172642661Y-53395571D01*
X172309328Y-53395571D01*
X173737900Y-53252714D02*
X173737900Y-53919380D01*
X173309328Y-53252714D02*
X173309328Y-53776523D01*
X173356947Y-53871761D01*
X173452185Y-53919380D01*
X173595042Y-53919380D01*
X173690280Y-53871761D01*
X173737900Y-53824142D01*
X174071233Y-53252714D02*
X174452185Y-53252714D01*
X174214090Y-52919380D02*
X174214090Y-53776523D01*
X174261709Y-53871761D01*
X174356947Y-53919380D01*
X174452185Y-53919380D01*
X174642661Y-53252714D02*
X175023614Y-53252714D01*
X174785519Y-52919380D02*
X174785519Y-53776523D01*
X174833138Y-53871761D01*
X174928376Y-53919380D01*
X175023614Y-53919380D01*
X175499804Y-53919380D02*
X175404566Y-53871761D01*
X175356947Y-53824142D01*
X175309328Y-53728904D01*
X175309328Y-53443190D01*
X175356947Y-53347952D01*
X175404566Y-53300333D01*
X175499804Y-53252714D01*
X175642661Y-53252714D01*
X175737900Y-53300333D01*
X175785519Y-53347952D01*
X175833138Y-53443190D01*
X175833138Y-53728904D01*
X175785519Y-53824142D01*
X175737900Y-53871761D01*
X175642661Y-53919380D01*
X175499804Y-53919380D01*
X176261709Y-53252714D02*
X176261709Y-53919380D01*
X176261709Y-53347952D02*
X176309328Y-53300333D01*
X176404566Y-53252714D01*
X176547423Y-53252714D01*
X176642661Y-53300333D01*
X176690280Y-53395571D01*
X176690280Y-53919380D01*
X177833138Y-53919380D02*
X178356947Y-53252714D01*
X177833138Y-53252714D02*
X178356947Y-53919380D01*
X179261709Y-53919380D02*
X178690280Y-53919380D01*
X178975995Y-53919380D02*
X178975995Y-52919380D01*
X178880757Y-53062238D01*
X178785519Y-53157476D01*
X178690280Y-53205095D01*
X180118852Y-52919380D02*
X179928376Y-52919380D01*
X179833138Y-52967000D01*
X179785519Y-53014619D01*
X179690280Y-53157476D01*
X179642661Y-53347952D01*
X179642661Y-53728904D01*
X179690280Y-53824142D01*
X179737900Y-53871761D01*
X179833138Y-53919380D01*
X180023614Y-53919380D01*
X180118852Y-53871761D01*
X180166471Y-53824142D01*
X180214090Y-53728904D01*
X180214090Y-53490809D01*
X180166471Y-53395571D01*
X180118852Y-53347952D01*
X180023614Y-53300333D01*
X179833138Y-53300333D01*
X179737900Y-53347952D01*
X179690280Y-53395571D01*
X179642661Y-53490809D01*
X159227780Y-128623342D02*
X158227780Y-128623342D01*
X158227780Y-128385247D01*
X158275400Y-128242390D01*
X158370638Y-128147152D01*
X158465876Y-128099533D01*
X158656352Y-128051914D01*
X158799209Y-128051914D01*
X158989685Y-128099533D01*
X159084923Y-128147152D01*
X159180161Y-128242390D01*
X159227780Y-128385247D01*
X159227780Y-128623342D01*
X159227780Y-127623342D02*
X158561114Y-127623342D01*
X158227780Y-127623342D02*
X158275400Y-127670961D01*
X158323019Y-127623342D01*
X158275400Y-127575723D01*
X158227780Y-127623342D01*
X158323019Y-127623342D01*
X158561114Y-126718580D02*
X159370638Y-126718580D01*
X159465876Y-126766200D01*
X159513495Y-126813819D01*
X159561114Y-126909057D01*
X159561114Y-127051914D01*
X159513495Y-127147152D01*
X159180161Y-126718580D02*
X159227780Y-126813819D01*
X159227780Y-127004295D01*
X159180161Y-127099533D01*
X159132542Y-127147152D01*
X159037304Y-127194771D01*
X158751590Y-127194771D01*
X158656352Y-127147152D01*
X158608733Y-127099533D01*
X158561114Y-127004295D01*
X158561114Y-126813819D01*
X158608733Y-126718580D01*
X159227780Y-126242390D02*
X158561114Y-126242390D01*
X158227780Y-126242390D02*
X158275400Y-126290009D01*
X158323019Y-126242390D01*
X158275400Y-126194771D01*
X158227780Y-126242390D01*
X158323019Y-126242390D01*
X158561114Y-125909057D02*
X158561114Y-125528104D01*
X158227780Y-125766200D02*
X159084923Y-125766200D01*
X159180161Y-125718580D01*
X159227780Y-125623342D01*
X159227780Y-125528104D01*
X159227780Y-124766200D02*
X158703971Y-124766200D01*
X158608733Y-124813819D01*
X158561114Y-124909057D01*
X158561114Y-125099533D01*
X158608733Y-125194771D01*
X159180161Y-124766200D02*
X159227780Y-124861438D01*
X159227780Y-125099533D01*
X159180161Y-125194771D01*
X159084923Y-125242390D01*
X158989685Y-125242390D01*
X158894447Y-125194771D01*
X158846828Y-125099533D01*
X158846828Y-124861438D01*
X158799209Y-124766200D01*
X159227780Y-124147152D02*
X159180161Y-124242390D01*
X159084923Y-124290009D01*
X158227780Y-124290009D01*
X159227780Y-122861438D02*
X159180161Y-122956676D01*
X159132542Y-123004295D01*
X159037304Y-123051914D01*
X158751590Y-123051914D01*
X158656352Y-123004295D01*
X158608733Y-122956676D01*
X158561114Y-122861438D01*
X158561114Y-122718580D01*
X158608733Y-122623342D01*
X158656352Y-122575723D01*
X158751590Y-122528104D01*
X159037304Y-122528104D01*
X159132542Y-122575723D01*
X159180161Y-122623342D01*
X159227780Y-122718580D01*
X159227780Y-122861438D01*
X158561114Y-121670961D02*
X159227780Y-121670961D01*
X158561114Y-122099533D02*
X159084923Y-122099533D01*
X159180161Y-122051914D01*
X159227780Y-121956676D01*
X159227780Y-121813819D01*
X159180161Y-121718580D01*
X159132542Y-121670961D01*
X158561114Y-121337628D02*
X158561114Y-120956676D01*
X158227780Y-121194771D02*
X159084923Y-121194771D01*
X159180161Y-121147152D01*
X159227780Y-121051914D01*
X159227780Y-120956676D01*
X158561114Y-120623342D02*
X159561114Y-120623342D01*
X158608733Y-120623342D02*
X158561114Y-120528104D01*
X158561114Y-120337628D01*
X158608733Y-120242390D01*
X158656352Y-120194771D01*
X158751590Y-120147152D01*
X159037304Y-120147152D01*
X159132542Y-120194771D01*
X159180161Y-120242390D01*
X159227780Y-120337628D01*
X159227780Y-120528104D01*
X159180161Y-120623342D01*
X158561114Y-119290009D02*
X159227780Y-119290009D01*
X158561114Y-119718580D02*
X159084923Y-119718580D01*
X159180161Y-119670961D01*
X159227780Y-119575723D01*
X159227780Y-119432866D01*
X159180161Y-119337628D01*
X159132542Y-119290009D01*
X158561114Y-118956676D02*
X158561114Y-118575723D01*
X158227780Y-118813819D02*
X159084923Y-118813819D01*
X159180161Y-118766200D01*
X159227780Y-118670961D01*
X159227780Y-118575723D01*
X159180161Y-118290009D02*
X159227780Y-118194771D01*
X159227780Y-118004295D01*
X159180161Y-117909057D01*
X159084923Y-117861438D01*
X159037304Y-117861438D01*
X158942066Y-117909057D01*
X158894447Y-118004295D01*
X158894447Y-118147152D01*
X158846828Y-118242390D01*
X158751590Y-118290009D01*
X158703971Y-118290009D01*
X158608733Y-118242390D01*
X158561114Y-118147152D01*
X158561114Y-118004295D01*
X158608733Y-117909057D01*
X195968880Y-130050728D02*
X194968880Y-130050728D01*
X194968880Y-129812633D01*
X195016500Y-129669776D01*
X195111738Y-129574538D01*
X195206976Y-129526919D01*
X195397452Y-129479300D01*
X195540309Y-129479300D01*
X195730785Y-129526919D01*
X195826023Y-129574538D01*
X195921261Y-129669776D01*
X195968880Y-129812633D01*
X195968880Y-130050728D01*
X195968880Y-129050728D02*
X195302214Y-129050728D01*
X194968880Y-129050728D02*
X195016500Y-129098347D01*
X195064119Y-129050728D01*
X195016500Y-129003109D01*
X194968880Y-129050728D01*
X195064119Y-129050728D01*
X195968880Y-128431680D02*
X195921261Y-128526919D01*
X195873642Y-128574538D01*
X195778404Y-128622157D01*
X195492690Y-128622157D01*
X195397452Y-128574538D01*
X195349833Y-128526919D01*
X195302214Y-128431680D01*
X195302214Y-128288823D01*
X195349833Y-128193585D01*
X195397452Y-128145966D01*
X195492690Y-128098347D01*
X195778404Y-128098347D01*
X195873642Y-128145966D01*
X195921261Y-128193585D01*
X195968880Y-128288823D01*
X195968880Y-128431680D01*
X195968880Y-127241204D02*
X194968880Y-127241204D01*
X195921261Y-127241204D02*
X195968880Y-127336442D01*
X195968880Y-127526919D01*
X195921261Y-127622157D01*
X195873642Y-127669776D01*
X195778404Y-127717395D01*
X195492690Y-127717395D01*
X195397452Y-127669776D01*
X195349833Y-127622157D01*
X195302214Y-127526919D01*
X195302214Y-127336442D01*
X195349833Y-127241204D01*
X195921261Y-126384061D02*
X195968880Y-126479300D01*
X195968880Y-126669776D01*
X195921261Y-126765014D01*
X195826023Y-126812633D01*
X195445071Y-126812633D01*
X195349833Y-126765014D01*
X195302214Y-126669776D01*
X195302214Y-126479300D01*
X195349833Y-126384061D01*
X195445071Y-126336442D01*
X195540309Y-126336442D01*
X195635547Y-126812633D01*
X195968880Y-125241204D02*
X195302214Y-124717395D01*
X195302214Y-125241204D02*
X195968880Y-124717395D01*
X195968880Y-123812633D02*
X195968880Y-124384061D01*
X195968880Y-124098347D02*
X194968880Y-124098347D01*
X195111738Y-124193585D01*
X195206976Y-124288823D01*
X195254595Y-124384061D01*
X194968880Y-122955490D02*
X194968880Y-123145966D01*
X195016500Y-123241204D01*
X195064119Y-123288823D01*
X195206976Y-123384061D01*
X195397452Y-123431680D01*
X195778404Y-123431680D01*
X195873642Y-123384061D01*
X195921261Y-123336442D01*
X195968880Y-123241204D01*
X195968880Y-123050728D01*
X195921261Y-122955490D01*
X195873642Y-122907871D01*
X195778404Y-122860252D01*
X195540309Y-122860252D01*
X195445071Y-122907871D01*
X195397452Y-122955490D01*
X195349833Y-123050728D01*
X195349833Y-123241204D01*
X195397452Y-123336442D01*
X195445071Y-123384061D01*
X195540309Y-123431680D01*
X151741690Y-107199061D02*
X151884547Y-107246680D01*
X152122642Y-107246680D01*
X152217880Y-107199061D01*
X152265500Y-107151442D01*
X152313119Y-107056204D01*
X152313119Y-106960966D01*
X152265500Y-106865728D01*
X152217880Y-106818109D01*
X152122642Y-106770490D01*
X151932166Y-106722871D01*
X151836928Y-106675252D01*
X151789309Y-106627633D01*
X151741690Y-106532395D01*
X151741690Y-106437157D01*
X151789309Y-106341919D01*
X151836928Y-106294300D01*
X151932166Y-106246680D01*
X152170261Y-106246680D01*
X152313119Y-106294300D01*
X153217880Y-107246680D02*
X152741690Y-107246680D01*
X152741690Y-106246680D01*
X153741690Y-106246680D02*
X153932166Y-106246680D01*
X154027404Y-106294300D01*
X154122642Y-106389538D01*
X154170261Y-106580014D01*
X154170261Y-106913347D01*
X154122642Y-107103823D01*
X154027404Y-107199061D01*
X153932166Y-107246680D01*
X153741690Y-107246680D01*
X153646452Y-107199061D01*
X153551214Y-107103823D01*
X153503595Y-106913347D01*
X153503595Y-106580014D01*
X153551214Y-106389538D01*
X153646452Y-106294300D01*
X153741690Y-106246680D01*
X154503595Y-106246680D02*
X154741690Y-107246680D01*
X154932166Y-106532395D01*
X155122642Y-107246680D01*
X155360738Y-106246680D01*
X156455976Y-106199061D02*
X155598833Y-107484776D01*
X157122642Y-106722871D02*
X156789309Y-106722871D01*
X156789309Y-107246680D02*
X156789309Y-106246680D01*
X157265500Y-106246680D01*
X157598833Y-106960966D02*
X158075023Y-106960966D01*
X157503595Y-107246680D02*
X157836928Y-106246680D01*
X158170261Y-107246680D01*
X158455976Y-107199061D02*
X158598833Y-107246680D01*
X158836928Y-107246680D01*
X158932166Y-107199061D01*
X158979785Y-107151442D01*
X159027404Y-107056204D01*
X159027404Y-106960966D01*
X158979785Y-106865728D01*
X158932166Y-106818109D01*
X158836928Y-106770490D01*
X158646452Y-106722871D01*
X158551214Y-106675252D01*
X158503595Y-106627633D01*
X158455976Y-106532395D01*
X158455976Y-106437157D01*
X158503595Y-106341919D01*
X158551214Y-106294300D01*
X158646452Y-106246680D01*
X158884547Y-106246680D01*
X159027404Y-106294300D01*
X159313119Y-106246680D02*
X159884547Y-106246680D01*
X159598833Y-107246680D02*
X159598833Y-106246680D01*
X104410190Y-136866380D02*
X104600666Y-136866380D01*
X104695904Y-136914000D01*
X104791142Y-137009238D01*
X104838761Y-137199714D01*
X104838761Y-137533047D01*
X104791142Y-137723523D01*
X104695904Y-137818761D01*
X104600666Y-137866380D01*
X104410190Y-137866380D01*
X104314952Y-137818761D01*
X104219714Y-137723523D01*
X104172095Y-137533047D01*
X104172095Y-137199714D01*
X104219714Y-137009238D01*
X104314952Y-136914000D01*
X104410190Y-136866380D01*
X105267333Y-137866380D02*
X105267333Y-136866380D01*
X105838761Y-137866380D01*
X105838761Y-136866380D01*
X107029238Y-136818761D02*
X106172095Y-138104476D01*
X107553047Y-136866380D02*
X107743523Y-136866380D01*
X107838761Y-136914000D01*
X107934000Y-137009238D01*
X107981619Y-137199714D01*
X107981619Y-137533047D01*
X107934000Y-137723523D01*
X107838761Y-137818761D01*
X107743523Y-137866380D01*
X107553047Y-137866380D01*
X107457809Y-137818761D01*
X107362571Y-137723523D01*
X107314952Y-137533047D01*
X107314952Y-137199714D01*
X107362571Y-137009238D01*
X107457809Y-136914000D01*
X107553047Y-136866380D01*
X108743523Y-137342571D02*
X108410190Y-137342571D01*
X108410190Y-137866380D02*
X108410190Y-136866380D01*
X108886380Y-136866380D01*
X109600666Y-137342571D02*
X109267333Y-137342571D01*
X109267333Y-137866380D02*
X109267333Y-136866380D01*
X109743523Y-136866380D01*
D11*
X168088571Y-121732857D02*
X168088571Y-120732857D01*
X169588571Y-121375714D01*
X168588571Y-119518571D02*
X169588571Y-119518571D01*
X168017142Y-119875714D02*
X169088571Y-120232857D01*
X169088571Y-119304285D01*
X169588571Y-118732857D02*
X168088571Y-118732857D01*
X168802857Y-118732857D02*
X168802857Y-117875714D01*
X169588571Y-117875714D02*
X168088571Y-117875714D01*
X169445714Y-116304285D02*
X169517142Y-116375714D01*
X169588571Y-116590000D01*
X169588571Y-116732857D01*
X169517142Y-116947142D01*
X169374285Y-117090000D01*
X169231428Y-117161428D01*
X168945714Y-117232857D01*
X168731428Y-117232857D01*
X168445714Y-117161428D01*
X168302857Y-117090000D01*
X168160000Y-116947142D01*
X168088571Y-116732857D01*
X168088571Y-116590000D01*
X168160000Y-116375714D01*
X168231428Y-116304285D01*
X168088571Y-114947142D02*
X168088571Y-115661428D01*
X168802857Y-115732857D01*
X168731428Y-115661428D01*
X168660000Y-115518571D01*
X168660000Y-115161428D01*
X168731428Y-115018571D01*
X168802857Y-114947142D01*
X168945714Y-114875714D01*
X169302857Y-114875714D01*
X169445714Y-114947142D01*
X169517142Y-115018571D01*
X169588571Y-115161428D01*
X169588571Y-115518571D01*
X169517142Y-115661428D01*
X169445714Y-115732857D01*
X169588571Y-114161428D02*
X169588571Y-113875714D01*
X169517142Y-113732857D01*
X169445714Y-113661428D01*
X169231428Y-113518571D01*
X168945714Y-113447142D01*
X168374285Y-113447142D01*
X168231428Y-113518571D01*
X168160000Y-113590000D01*
X168088571Y-113732857D01*
X168088571Y-114018571D01*
X168160000Y-114161428D01*
X168231428Y-114232857D01*
X168374285Y-114304285D01*
X168731428Y-114304285D01*
X168874285Y-114232857D01*
X168945714Y-114161428D01*
X169017142Y-114018571D01*
X169017142Y-113732857D01*
X168945714Y-113590000D01*
X168874285Y-113518571D01*
X168731428Y-113447142D01*
X168088571Y-112090000D02*
X168088571Y-112804285D01*
X168802857Y-112875714D01*
X168731428Y-112804285D01*
X168660000Y-112661428D01*
X168660000Y-112304285D01*
X168731428Y-112161428D01*
X168802857Y-112090000D01*
X168945714Y-112018571D01*
X169302857Y-112018571D01*
X169445714Y-112090000D01*
X169517142Y-112161428D01*
X169588571Y-112304285D01*
X169588571Y-112661428D01*
X169517142Y-112804285D01*
X169445714Y-112875714D01*
X168088571Y-87442857D02*
X168088571Y-86442857D01*
X169588571Y-87085714D01*
X168588571Y-85228571D02*
X169588571Y-85228571D01*
X168017142Y-85585714D02*
X169088571Y-85942857D01*
X169088571Y-85014285D01*
X169588571Y-84442857D02*
X168088571Y-84442857D01*
X168802857Y-84442857D02*
X168802857Y-83585714D01*
X169588571Y-83585714D02*
X168088571Y-83585714D01*
X169445714Y-82014285D02*
X169517142Y-82085714D01*
X169588571Y-82300000D01*
X169588571Y-82442857D01*
X169517142Y-82657142D01*
X169374285Y-82800000D01*
X169231428Y-82871428D01*
X168945714Y-82942857D01*
X168731428Y-82942857D01*
X168445714Y-82871428D01*
X168302857Y-82800000D01*
X168160000Y-82657142D01*
X168088571Y-82442857D01*
X168088571Y-82300000D01*
X168160000Y-82085714D01*
X168231428Y-82014285D01*
X168088571Y-80657142D02*
X168088571Y-81371428D01*
X168802857Y-81442857D01*
X168731428Y-81371428D01*
X168660000Y-81228571D01*
X168660000Y-80871428D01*
X168731428Y-80728571D01*
X168802857Y-80657142D01*
X168945714Y-80585714D01*
X169302857Y-80585714D01*
X169445714Y-80657142D01*
X169517142Y-80728571D01*
X169588571Y-80871428D01*
X169588571Y-81228571D01*
X169517142Y-81371428D01*
X169445714Y-81442857D01*
X169588571Y-79871428D02*
X169588571Y-79585714D01*
X169517142Y-79442857D01*
X169445714Y-79371428D01*
X169231428Y-79228571D01*
X168945714Y-79157142D01*
X168374285Y-79157142D01*
X168231428Y-79228571D01*
X168160000Y-79300000D01*
X168088571Y-79442857D01*
X168088571Y-79728571D01*
X168160000Y-79871428D01*
X168231428Y-79942857D01*
X168374285Y-80014285D01*
X168731428Y-80014285D01*
X168874285Y-79942857D01*
X168945714Y-79871428D01*
X169017142Y-79728571D01*
X169017142Y-79442857D01*
X168945714Y-79300000D01*
X168874285Y-79228571D01*
X168731428Y-79157142D01*
X168088571Y-77800000D02*
X168088571Y-78514285D01*
X168802857Y-78585714D01*
X168731428Y-78514285D01*
X168660000Y-78371428D01*
X168660000Y-78014285D01*
X168731428Y-77871428D01*
X168802857Y-77800000D01*
X168945714Y-77728571D01*
X169302857Y-77728571D01*
X169445714Y-77800000D01*
X169517142Y-77871428D01*
X169588571Y-78014285D01*
X169588571Y-78371428D01*
X169517142Y-78514285D01*
X169445714Y-78585714D01*
X142490000Y-114600714D02*
X142490000Y-113886428D01*
X142918571Y-114743571D02*
X141418571Y-114243571D01*
X142918571Y-113743571D01*
X142918571Y-113243571D02*
X141918571Y-113243571D01*
X142204285Y-113243571D02*
X142061428Y-113172142D01*
X141990000Y-113100714D01*
X141918571Y-112957857D01*
X141918571Y-112815000D01*
X142918571Y-111672142D02*
X141418571Y-111672142D01*
X142847142Y-111672142D02*
X142918571Y-111815000D01*
X142918571Y-112100714D01*
X142847142Y-112243571D01*
X142775714Y-112315000D01*
X142632857Y-112386428D01*
X142204285Y-112386428D01*
X142061428Y-112315000D01*
X141990000Y-112243571D01*
X141918571Y-112100714D01*
X141918571Y-111815000D01*
X141990000Y-111672142D01*
X141918571Y-110315000D02*
X142918571Y-110315000D01*
X141918571Y-110957857D02*
X142704285Y-110957857D01*
X142847142Y-110886428D01*
X142918571Y-110743571D01*
X142918571Y-110529285D01*
X142847142Y-110386428D01*
X142775714Y-110315000D01*
X142918571Y-109600714D02*
X141918571Y-109600714D01*
X141418571Y-109600714D02*
X141490000Y-109672142D01*
X141561428Y-109600714D01*
X141490000Y-109529285D01*
X141418571Y-109600714D01*
X141561428Y-109600714D01*
X141918571Y-108886428D02*
X142918571Y-108886428D01*
X142061428Y-108886428D02*
X141990000Y-108815000D01*
X141918571Y-108672142D01*
X141918571Y-108457857D01*
X141990000Y-108315000D01*
X142132857Y-108243571D01*
X142918571Y-108243571D01*
X142918571Y-107315000D02*
X142847142Y-107457857D01*
X142775714Y-107529285D01*
X142632857Y-107600714D01*
X142204285Y-107600714D01*
X142061428Y-107529285D01*
X141990000Y-107457857D01*
X141918571Y-107315000D01*
X141918571Y-107100714D01*
X141990000Y-106957857D01*
X142061428Y-106886428D01*
X142204285Y-106815000D01*
X142632857Y-106815000D01*
X142775714Y-106886428D01*
X142847142Y-106957857D01*
X142918571Y-107100714D01*
X142918571Y-107315000D01*
X142918571Y-105029285D02*
X141418571Y-105029285D01*
X142918571Y-104172142D01*
X141418571Y-104172142D01*
X142918571Y-102815000D02*
X142132857Y-102815000D01*
X141990000Y-102886428D01*
X141918571Y-103029285D01*
X141918571Y-103315000D01*
X141990000Y-103457857D01*
X142847142Y-102815000D02*
X142918571Y-102957857D01*
X142918571Y-103315000D01*
X142847142Y-103457857D01*
X142704285Y-103529285D01*
X142561428Y-103529285D01*
X142418571Y-103457857D01*
X142347142Y-103315000D01*
X142347142Y-102957857D01*
X142275714Y-102815000D01*
X141918571Y-102100714D02*
X142918571Y-102100714D01*
X142061428Y-102100714D02*
X141990000Y-102029285D01*
X141918571Y-101886428D01*
X141918571Y-101672142D01*
X141990000Y-101529285D01*
X142132857Y-101457857D01*
X142918571Y-101457857D01*
X142918571Y-100529285D02*
X142847142Y-100672142D01*
X142775714Y-100743571D01*
X142632857Y-100815000D01*
X142204285Y-100815000D01*
X142061428Y-100743571D01*
X141990000Y-100672142D01*
X141918571Y-100529285D01*
X141918571Y-100315000D01*
X141990000Y-100172142D01*
X142061428Y-100100714D01*
X142204285Y-100029285D01*
X142632857Y-100029285D01*
X142775714Y-100100714D01*
X142847142Y-100172142D01*
X142918571Y-100315000D01*
X142918571Y-100529285D01*
X113467142Y-107993571D02*
X113467142Y-106493571D01*
X114038571Y-106493571D01*
X114181428Y-106565000D01*
X114252857Y-106636428D01*
X114324285Y-106779285D01*
X114324285Y-106993571D01*
X114252857Y-107136428D01*
X114181428Y-107207857D01*
X114038571Y-107279285D01*
X113467142Y-107279285D01*
X115824285Y-107850714D02*
X115752857Y-107922142D01*
X115538571Y-107993571D01*
X115395714Y-107993571D01*
X115181428Y-107922142D01*
X115038571Y-107779285D01*
X114967142Y-107636428D01*
X114895714Y-107350714D01*
X114895714Y-107136428D01*
X114967142Y-106850714D01*
X115038571Y-106707857D01*
X115181428Y-106565000D01*
X115395714Y-106493571D01*
X115538571Y-106493571D01*
X115752857Y-106565000D01*
X115824285Y-106636428D01*
X116967142Y-107207857D02*
X116467142Y-107207857D01*
X116467142Y-107993571D02*
X116467142Y-106493571D01*
X117181428Y-106493571D01*
X117967142Y-107136428D02*
X117824285Y-107065000D01*
X117752857Y-106993571D01*
X117681428Y-106850714D01*
X117681428Y-106779285D01*
X117752857Y-106636428D01*
X117824285Y-106565000D01*
X117967142Y-106493571D01*
X118252857Y-106493571D01*
X118395714Y-106565000D01*
X118467142Y-106636428D01*
X118538571Y-106779285D01*
X118538571Y-106850714D01*
X118467142Y-106993571D01*
X118395714Y-107065000D01*
X118252857Y-107136428D01*
X117967142Y-107136428D01*
X117824285Y-107207857D01*
X117752857Y-107279285D01*
X117681428Y-107422142D01*
X117681428Y-107707857D01*
X117752857Y-107850714D01*
X117824285Y-107922142D01*
X117967142Y-107993571D01*
X118252857Y-107993571D01*
X118395714Y-107922142D01*
X118467142Y-107850714D01*
X118538571Y-107707857D01*
X118538571Y-107422142D01*
X118467142Y-107279285D01*
X118395714Y-107207857D01*
X118252857Y-107136428D01*
X119895714Y-106493571D02*
X119181428Y-106493571D01*
X119110000Y-107207857D01*
X119181428Y-107136428D01*
X119324285Y-107065000D01*
X119681428Y-107065000D01*
X119824285Y-107136428D01*
X119895714Y-107207857D01*
X119967142Y-107350714D01*
X119967142Y-107707857D01*
X119895714Y-107850714D01*
X119824285Y-107922142D01*
X119681428Y-107993571D01*
X119324285Y-107993571D01*
X119181428Y-107922142D01*
X119110000Y-107850714D01*
X120467142Y-106493571D02*
X121467142Y-106493571D01*
X120824285Y-107993571D01*
X122681428Y-106993571D02*
X122681428Y-107993571D01*
X122324285Y-106422142D02*
X121967142Y-107493571D01*
X122895714Y-107493571D01*
D12*
G36*
X192771230Y-53962366D02*
G01*
X192865034Y-54002235D01*
X192996691Y-54070880D01*
X193154481Y-54161624D01*
X193326682Y-54267791D01*
X193501573Y-54382705D01*
X193628934Y-54471678D01*
X194049864Y-54806222D01*
X194417364Y-55163551D01*
X194725249Y-55536683D01*
X194967333Y-55918635D01*
X195041829Y-56066875D01*
X195154464Y-56352690D01*
X195254664Y-56691737D01*
X195338283Y-57063332D01*
X195401174Y-57446793D01*
X195439191Y-57821436D01*
X195448909Y-58097326D01*
X195448909Y-58381852D01*
X195709379Y-58465604D01*
X196061346Y-58616125D01*
X196388249Y-58829001D01*
X196674596Y-59092829D01*
X196839786Y-59297704D01*
X196903832Y-59394323D01*
X196997603Y-59543500D01*
X197113956Y-59733195D01*
X197245752Y-59951365D01*
X197385850Y-60185972D01*
X197527109Y-60424973D01*
X197662387Y-60656329D01*
X197784545Y-60867997D01*
X197886440Y-61047939D01*
X197960933Y-61184111D01*
X197978358Y-61217533D01*
X198049358Y-61419601D01*
X198083106Y-61658183D01*
X198077792Y-61904404D01*
X198034817Y-62119407D01*
X197925944Y-62361062D01*
X197765929Y-62577193D01*
X197571113Y-62747128D01*
X197507596Y-62786418D01*
X197337589Y-62859871D01*
X197100807Y-62928845D01*
X196804787Y-62991940D01*
X196457068Y-63047752D01*
X196065189Y-63094881D01*
X195658161Y-63130384D01*
X195372431Y-63152672D01*
X195145644Y-63175215D01*
X194962423Y-63201157D01*
X194807389Y-63233640D01*
X194665164Y-63275809D01*
X194520370Y-63330806D01*
X194380238Y-63391581D01*
X194255819Y-63451227D01*
X194188102Y-63496484D01*
X194163963Y-63538589D01*
X194166499Y-63574580D01*
X194220129Y-63811488D01*
X194279188Y-64079983D01*
X194341738Y-64370541D01*
X194405844Y-64673642D01*
X194469568Y-64979764D01*
X194530974Y-65279384D01*
X194588126Y-65562982D01*
X194639088Y-65821035D01*
X194681923Y-66044022D01*
X194714694Y-66222421D01*
X194735466Y-66346710D01*
X194742321Y-66406017D01*
X194709147Y-66575778D01*
X194619793Y-66730693D01*
X194489513Y-66857477D01*
X194333559Y-66942839D01*
X194167184Y-66973494D01*
X194098420Y-66966963D01*
X193957659Y-66912028D01*
X193814893Y-66811118D01*
X193697547Y-66686567D01*
X193645621Y-66598240D01*
X193601036Y-66492205D01*
X193553480Y-66607017D01*
X193467875Y-66741451D01*
X193339994Y-66861403D01*
X193196459Y-66944479D01*
X193127824Y-66965064D01*
X192945783Y-66963971D01*
X192776164Y-66898914D01*
X192634620Y-66780233D01*
X192536806Y-66618273D01*
X192518188Y-66562279D01*
X192500433Y-66490027D01*
X192470024Y-66358155D01*
X192429904Y-66179765D01*
X192383013Y-65967963D01*
X192332295Y-65735851D01*
X192322581Y-65691057D01*
X192159821Y-64939543D01*
X192047191Y-65014944D01*
X191904528Y-65100488D01*
X191728062Y-65191899D01*
X191539642Y-65279297D01*
X191361119Y-65352803D01*
X191214341Y-65402535D01*
X191162892Y-65414821D01*
X191060716Y-65431449D01*
X190996929Y-65437495D01*
X190986245Y-65435321D01*
X191005927Y-65401164D01*
X191057610Y-65323032D01*
X191130253Y-65217602D01*
X191132773Y-65214003D01*
X191337563Y-64859882D01*
X191488211Y-64466516D01*
X191581800Y-64048587D01*
X191615413Y-63620774D01*
X191586136Y-63197758D01*
X191561233Y-63057131D01*
X191435435Y-62620324D01*
X191249247Y-62218393D01*
X191008891Y-61855696D01*
X190720592Y-61536587D01*
X190390574Y-61265422D01*
X190025062Y-61046557D01*
X189630279Y-60884348D01*
X189212450Y-60783149D01*
X188777798Y-60747318D01*
X188332548Y-60781208D01*
X188313362Y-60784279D01*
X188119845Y-60821110D01*
X187986582Y-60859925D01*
X187899492Y-60905238D01*
X187876393Y-60924326D01*
X187801501Y-61038272D01*
X187795609Y-61164637D01*
X187858434Y-61288781D01*
X187883933Y-61316845D01*
X187950172Y-61374488D01*
X188013556Y-61395980D01*
X188105662Y-61388745D01*
X188153552Y-61380235D01*
X188261402Y-61367451D01*
X188420748Y-61357717D01*
X188608732Y-61352099D01*
X188773507Y-61351352D01*
X188981044Y-61355345D01*
X189136231Y-61365422D01*
X189261032Y-61384658D01*
X189377413Y-61416127D01*
X189470484Y-61448891D01*
X189801070Y-61597329D01*
X190088183Y-61783665D01*
X190357187Y-62024726D01*
X190390623Y-62059356D01*
X190642163Y-62373573D01*
X190828564Y-62713254D01*
X190951218Y-63070603D01*
X191011513Y-63437827D01*
X191010839Y-63807130D01*
X190950586Y-64170719D01*
X190832144Y-64520799D01*
X190656903Y-64849576D01*
X190426252Y-65149255D01*
X190141582Y-65412041D01*
X189804282Y-65630141D01*
X189748816Y-65658729D01*
X189407812Y-65828954D01*
X190330866Y-65828954D01*
X190627696Y-65829641D01*
X190859705Y-65832069D01*
X191036439Y-65836787D01*
X191167445Y-65844343D01*
X191262271Y-65855285D01*
X191330463Y-65870164D01*
X191381137Y-65889322D01*
X191533249Y-65997945D01*
X191633738Y-66144703D01*
X191682673Y-66314247D01*
X191680118Y-66491228D01*
X191626141Y-66660299D01*
X191520808Y-66806110D01*
X191376735Y-66907428D01*
X191341198Y-66923456D01*
X191302092Y-66936998D01*
X191253205Y-66948258D01*
X191188326Y-66957441D01*
X191101246Y-66964754D01*
X190985752Y-66970402D01*
X190835636Y-66974590D01*
X190644685Y-66977525D01*
X190406689Y-66979411D01*
X190115438Y-66980454D01*
X189764721Y-66980860D01*
X189348327Y-66980835D01*
X189161546Y-66980749D01*
X187100008Y-66979690D01*
X186783902Y-66726651D01*
X186344140Y-66334322D01*
X185969543Y-65911927D01*
X185654621Y-65452645D01*
X185447304Y-65065299D01*
X185350920Y-64845560D01*
X185257221Y-64600444D01*
X185175117Y-64355696D01*
X185113515Y-64137060D01*
X185091627Y-64037407D01*
X185069371Y-63952296D01*
X185028891Y-63908184D01*
X184946416Y-63884984D01*
X184903052Y-63878060D01*
X184708372Y-63825324D01*
X184493972Y-63729759D01*
X184287036Y-63606258D01*
X184114749Y-63469715D01*
X184065523Y-63419203D01*
X183964831Y-63288741D01*
X183862030Y-63128385D01*
X183794302Y-63002599D01*
X183741404Y-62886078D01*
X183707619Y-62788025D01*
X183688715Y-62685317D01*
X183680463Y-62554835D01*
X183678632Y-62373456D01*
X183678631Y-62370388D01*
X183680778Y-62184388D01*
X183689698Y-62050198D01*
X183709115Y-61945313D01*
X183742750Y-61847230D01*
X183778440Y-61766951D01*
X183952969Y-61473821D01*
X184174100Y-61231509D01*
X184433771Y-61044839D01*
X184723916Y-60918635D01*
X185036474Y-60857722D01*
X185295854Y-60859113D01*
X185427393Y-60866983D01*
X185520002Y-60863981D01*
X185556611Y-60850706D01*
X185556669Y-60849974D01*
X185580130Y-60782089D01*
X185644787Y-60670348D01*
X185742051Y-60526157D01*
X185863334Y-60360918D01*
X186000045Y-60186035D01*
X186143598Y-60012911D01*
X186285401Y-59852952D01*
X186388814Y-59745111D01*
X186817885Y-59359363D01*
X187265145Y-59042390D01*
X187740010Y-58789110D01*
X188251894Y-58594441D01*
X188764817Y-58462493D01*
X189184637Y-58401753D01*
X189640539Y-58381384D01*
X190108292Y-58400224D01*
X190563666Y-58457111D01*
X190982429Y-58550882D01*
X191054478Y-58572343D01*
X191171401Y-58606757D01*
X191254006Y-58627298D01*
X191283756Y-58629662D01*
X191265753Y-58593539D01*
X191218132Y-58510771D01*
X191150473Y-58397925D01*
X191136712Y-58375381D01*
X190992109Y-58129330D01*
X190882598Y-57916944D01*
X190796917Y-57713722D01*
X190723806Y-57495159D01*
X190708731Y-57444104D01*
X190610924Y-56999737D01*
X190561588Y-56519226D01*
X190562558Y-56024367D01*
X190574867Y-55854598D01*
X190594846Y-55671931D01*
X190622162Y-55471821D01*
X190654166Y-55268932D01*
X190688209Y-55077930D01*
X190721640Y-54913480D01*
X190751810Y-54790247D01*
X190776069Y-54722897D01*
X190780399Y-54716986D01*
X190826625Y-54716551D01*
X190927890Y-54740598D01*
X191070834Y-54784394D01*
X191242096Y-54843204D01*
X191428315Y-54912296D01*
X191616131Y-54986938D01*
X191792182Y-55062395D01*
X191907996Y-55116447D01*
X192381257Y-55374308D01*
X192788537Y-55654626D01*
X193136395Y-55963414D01*
X193431385Y-56306687D01*
X193680067Y-56690456D01*
X193735053Y-56792058D01*
X193960966Y-57277342D01*
X194136318Y-57766537D01*
X194200963Y-58000696D01*
X194283620Y-58335396D01*
X194678808Y-58358254D01*
X194657626Y-58179475D01*
X194626181Y-58012312D01*
X194568421Y-57797033D01*
X194490567Y-57552404D01*
X194398840Y-57297193D01*
X194299461Y-57050167D01*
X194236299Y-56908425D01*
X193963822Y-56407068D01*
X193637253Y-55956582D01*
X193255191Y-55555346D01*
X192816239Y-55201739D01*
X192688138Y-55114452D01*
X192533877Y-55007701D01*
X192422607Y-54919597D01*
X192362663Y-54857128D01*
X192354784Y-54834941D01*
X192374563Y-54774687D01*
X192416157Y-54666943D01*
X192472484Y-54528398D01*
X192536460Y-54375740D01*
X192601002Y-54225659D01*
X192659027Y-54094843D01*
X192703452Y-53999981D01*
X192727001Y-53957948D01*
X192771230Y-53962366D01*
X192771230Y-53962366D01*
G37*
X192771230Y-53962366D02*
X192865034Y-54002235D01*
X192996691Y-54070880D01*
X193154481Y-54161624D01*
X193326682Y-54267791D01*
X193501573Y-54382705D01*
X193628934Y-54471678D01*
X194049864Y-54806222D01*
X194417364Y-55163551D01*
X194725249Y-55536683D01*
X194967333Y-55918635D01*
X195041829Y-56066875D01*
X195154464Y-56352690D01*
X195254664Y-56691737D01*
X195338283Y-57063332D01*
X195401174Y-57446793D01*
X195439191Y-57821436D01*
X195448909Y-58097326D01*
X195448909Y-58381852D01*
X195709379Y-58465604D01*
X196061346Y-58616125D01*
X196388249Y-58829001D01*
X196674596Y-59092829D01*
X196839786Y-59297704D01*
X196903832Y-59394323D01*
X196997603Y-59543500D01*
X197113956Y-59733195D01*
X197245752Y-59951365D01*
X197385850Y-60185972D01*
X197527109Y-60424973D01*
X197662387Y-60656329D01*
X197784545Y-60867997D01*
X197886440Y-61047939D01*
X197960933Y-61184111D01*
X197978358Y-61217533D01*
X198049358Y-61419601D01*
X198083106Y-61658183D01*
X198077792Y-61904404D01*
X198034817Y-62119407D01*
X197925944Y-62361062D01*
X197765929Y-62577193D01*
X197571113Y-62747128D01*
X197507596Y-62786418D01*
X197337589Y-62859871D01*
X197100807Y-62928845D01*
X196804787Y-62991940D01*
X196457068Y-63047752D01*
X196065189Y-63094881D01*
X195658161Y-63130384D01*
X195372431Y-63152672D01*
X195145644Y-63175215D01*
X194962423Y-63201157D01*
X194807389Y-63233640D01*
X194665164Y-63275809D01*
X194520370Y-63330806D01*
X194380238Y-63391581D01*
X194255819Y-63451227D01*
X194188102Y-63496484D01*
X194163963Y-63538589D01*
X194166499Y-63574580D01*
X194220129Y-63811488D01*
X194279188Y-64079983D01*
X194341738Y-64370541D01*
X194405844Y-64673642D01*
X194469568Y-64979764D01*
X194530974Y-65279384D01*
X194588126Y-65562982D01*
X194639088Y-65821035D01*
X194681923Y-66044022D01*
X194714694Y-66222421D01*
X194735466Y-66346710D01*
X194742321Y-66406017D01*
X194709147Y-66575778D01*
X194619793Y-66730693D01*
X194489513Y-66857477D01*
X194333559Y-66942839D01*
X194167184Y-66973494D01*
X194098420Y-66966963D01*
X193957659Y-66912028D01*
X193814893Y-66811118D01*
X193697547Y-66686567D01*
X193645621Y-66598240D01*
X193601036Y-66492205D01*
X193553480Y-66607017D01*
X193467875Y-66741451D01*
X193339994Y-66861403D01*
X193196459Y-66944479D01*
X193127824Y-66965064D01*
X192945783Y-66963971D01*
X192776164Y-66898914D01*
X192634620Y-66780233D01*
X192536806Y-66618273D01*
X192518188Y-66562279D01*
X192500433Y-66490027D01*
X192470024Y-66358155D01*
X192429904Y-66179765D01*
X192383013Y-65967963D01*
X192332295Y-65735851D01*
X192322581Y-65691057D01*
X192159821Y-64939543D01*
X192047191Y-65014944D01*
X191904528Y-65100488D01*
X191728062Y-65191899D01*
X191539642Y-65279297D01*
X191361119Y-65352803D01*
X191214341Y-65402535D01*
X191162892Y-65414821D01*
X191060716Y-65431449D01*
X190996929Y-65437495D01*
X190986245Y-65435321D01*
X191005927Y-65401164D01*
X191057610Y-65323032D01*
X191130253Y-65217602D01*
X191132773Y-65214003D01*
X191337563Y-64859882D01*
X191488211Y-64466516D01*
X191581800Y-64048587D01*
X191615413Y-63620774D01*
X191586136Y-63197758D01*
X191561233Y-63057131D01*
X191435435Y-62620324D01*
X191249247Y-62218393D01*
X191008891Y-61855696D01*
X190720592Y-61536587D01*
X190390574Y-61265422D01*
X190025062Y-61046557D01*
X189630279Y-60884348D01*
X189212450Y-60783149D01*
X188777798Y-60747318D01*
X188332548Y-60781208D01*
X188313362Y-60784279D01*
X188119845Y-60821110D01*
X187986582Y-60859925D01*
X187899492Y-60905238D01*
X187876393Y-60924326D01*
X187801501Y-61038272D01*
X187795609Y-61164637D01*
X187858434Y-61288781D01*
X187883933Y-61316845D01*
X187950172Y-61374488D01*
X188013556Y-61395980D01*
X188105662Y-61388745D01*
X188153552Y-61380235D01*
X188261402Y-61367451D01*
X188420748Y-61357717D01*
X188608732Y-61352099D01*
X188773507Y-61351352D01*
X188981044Y-61355345D01*
X189136231Y-61365422D01*
X189261032Y-61384658D01*
X189377413Y-61416127D01*
X189470484Y-61448891D01*
X189801070Y-61597329D01*
X190088183Y-61783665D01*
X190357187Y-62024726D01*
X190390623Y-62059356D01*
X190642163Y-62373573D01*
X190828564Y-62713254D01*
X190951218Y-63070603D01*
X191011513Y-63437827D01*
X191010839Y-63807130D01*
X190950586Y-64170719D01*
X190832144Y-64520799D01*
X190656903Y-64849576D01*
X190426252Y-65149255D01*
X190141582Y-65412041D01*
X189804282Y-65630141D01*
X189748816Y-65658729D01*
X189407812Y-65828954D01*
X190330866Y-65828954D01*
X190627696Y-65829641D01*
X190859705Y-65832069D01*
X191036439Y-65836787D01*
X191167445Y-65844343D01*
X191262271Y-65855285D01*
X191330463Y-65870164D01*
X191381137Y-65889322D01*
X191533249Y-65997945D01*
X191633738Y-66144703D01*
X191682673Y-66314247D01*
X191680118Y-66491228D01*
X191626141Y-66660299D01*
X191520808Y-66806110D01*
X191376735Y-66907428D01*
X191341198Y-66923456D01*
X191302092Y-66936998D01*
X191253205Y-66948258D01*
X191188326Y-66957441D01*
X191101246Y-66964754D01*
X190985752Y-66970402D01*
X190835636Y-66974590D01*
X190644685Y-66977525D01*
X190406689Y-66979411D01*
X190115438Y-66980454D01*
X189764721Y-66980860D01*
X189348327Y-66980835D01*
X189161546Y-66980749D01*
X187100008Y-66979690D01*
X186783902Y-66726651D01*
X186344140Y-66334322D01*
X185969543Y-65911927D01*
X185654621Y-65452645D01*
X185447304Y-65065299D01*
X185350920Y-64845560D01*
X185257221Y-64600444D01*
X185175117Y-64355696D01*
X185113515Y-64137060D01*
X185091627Y-64037407D01*
X185069371Y-63952296D01*
X185028891Y-63908184D01*
X184946416Y-63884984D01*
X184903052Y-63878060D01*
X184708372Y-63825324D01*
X184493972Y-63729759D01*
X184287036Y-63606258D01*
X184114749Y-63469715D01*
X184065523Y-63419203D01*
X183964831Y-63288741D01*
X183862030Y-63128385D01*
X183794302Y-63002599D01*
X183741404Y-62886078D01*
X183707619Y-62788025D01*
X183688715Y-62685317D01*
X183680463Y-62554835D01*
X183678632Y-62373456D01*
X183678631Y-62370388D01*
X183680778Y-62184388D01*
X183689698Y-62050198D01*
X183709115Y-61945313D01*
X183742750Y-61847230D01*
X183778440Y-61766951D01*
X183952969Y-61473821D01*
X184174100Y-61231509D01*
X184433771Y-61044839D01*
X184723916Y-60918635D01*
X185036474Y-60857722D01*
X185295854Y-60859113D01*
X185427393Y-60866983D01*
X185520002Y-60863981D01*
X185556611Y-60850706D01*
X185556669Y-60849974D01*
X185580130Y-60782089D01*
X185644787Y-60670348D01*
X185742051Y-60526157D01*
X185863334Y-60360918D01*
X186000045Y-60186035D01*
X186143598Y-60012911D01*
X186285401Y-59852952D01*
X186388814Y-59745111D01*
X186817885Y-59359363D01*
X187265145Y-59042390D01*
X187740010Y-58789110D01*
X188251894Y-58594441D01*
X188764817Y-58462493D01*
X189184637Y-58401753D01*
X189640539Y-58381384D01*
X190108292Y-58400224D01*
X190563666Y-58457111D01*
X190982429Y-58550882D01*
X191054478Y-58572343D01*
X191171401Y-58606757D01*
X191254006Y-58627298D01*
X191283756Y-58629662D01*
X191265753Y-58593539D01*
X191218132Y-58510771D01*
X191150473Y-58397925D01*
X191136712Y-58375381D01*
X190992109Y-58129330D01*
X190882598Y-57916944D01*
X190796917Y-57713722D01*
X190723806Y-57495159D01*
X190708731Y-57444104D01*
X190610924Y-56999737D01*
X190561588Y-56519226D01*
X190562558Y-56024367D01*
X190574867Y-55854598D01*
X190594846Y-55671931D01*
X190622162Y-55471821D01*
X190654166Y-55268932D01*
X190688209Y-55077930D01*
X190721640Y-54913480D01*
X190751810Y-54790247D01*
X190776069Y-54722897D01*
X190780399Y-54716986D01*
X190826625Y-54716551D01*
X190927890Y-54740598D01*
X191070834Y-54784394D01*
X191242096Y-54843204D01*
X191428315Y-54912296D01*
X191616131Y-54986938D01*
X191792182Y-55062395D01*
X191907996Y-55116447D01*
X192381257Y-55374308D01*
X192788537Y-55654626D01*
X193136395Y-55963414D01*
X193431385Y-56306687D01*
X193680067Y-56690456D01*
X193735053Y-56792058D01*
X193960966Y-57277342D01*
X194136318Y-57766537D01*
X194200963Y-58000696D01*
X194283620Y-58335396D01*
X194678808Y-58358254D01*
X194657626Y-58179475D01*
X194626181Y-58012312D01*
X194568421Y-57797033D01*
X194490567Y-57552404D01*
X194398840Y-57297193D01*
X194299461Y-57050167D01*
X194236299Y-56908425D01*
X193963822Y-56407068D01*
X193637253Y-55956582D01*
X193255191Y-55555346D01*
X192816239Y-55201739D01*
X192688138Y-55114452D01*
X192533877Y-55007701D01*
X192422607Y-54919597D01*
X192362663Y-54857128D01*
X192354784Y-54834941D01*
X192374563Y-54774687D01*
X192416157Y-54666943D01*
X192472484Y-54528398D01*
X192536460Y-54375740D01*
X192601002Y-54225659D01*
X192659027Y-54094843D01*
X192703452Y-53999981D01*
X192727001Y-53957948D01*
X192771230Y-53962366D01*
D13*
X102670300Y-124939100D02*
X105330300Y-124939100D01*
X102670300Y-86779100D02*
X102670300Y-124939100D01*
X105330300Y-86779100D02*
X105330300Y-124939100D01*
X102670300Y-86779100D02*
X105330300Y-86779100D01*
X102670300Y-85509100D02*
X102670300Y-84179100D01*
X102670300Y-84179100D02*
X104000300Y-84179100D01*
X133220000Y-130940000D02*
X151260000Y-130940000D01*
X133220000Y-87500000D02*
X133220000Y-130940000D01*
X151260000Y-87500000D02*
X133220000Y-87500000D01*
X148590000Y-90170000D02*
X151260000Y-90170000D01*
X148590000Y-125730000D02*
X148590000Y-90170000D01*
X148590000Y-125730000D02*
X151260000Y-125730000D01*
X135890000Y-90170000D02*
X133220000Y-90170000D01*
X135890000Y-128270000D02*
X135890000Y-90170000D01*
X135890000Y-128270000D02*
X133220000Y-128270000D01*
X151260000Y-130940000D02*
X151260000Y-128270000D01*
X151260000Y-125730000D02*
X151260000Y-87500000D01*
X148590000Y-128270000D02*
X151260000Y-128270000D01*
X148590000Y-125730000D02*
X148590000Y-128270000D01*
X104410200Y-145843300D02*
X107070200Y-145843300D01*
X104410200Y-143243300D02*
X104410200Y-145843300D01*
X107070200Y-143243300D02*
X107070200Y-145843300D01*
X104410200Y-143243300D02*
X107070200Y-143243300D01*
X104410200Y-141973300D02*
X104410200Y-140643300D01*
X104410200Y-140643300D02*
X105740200Y-140643300D01*
X116400000Y-59000000D02*
G75*
G03X116400000Y-59000000I-7600000J0D01*
G01*
X125630000Y-118370000D02*
X125630000Y-113130000D01*
X128370000Y-118370000D02*
X128370000Y-113130000D01*
X125630000Y-118370000D02*
X128370000Y-118370000D01*
X125630000Y-113130000D02*
X128370000Y-113130000D01*
X106630000Y-84130000D02*
X109370000Y-84130000D01*
X106630000Y-89370000D02*
X109370000Y-89370000D01*
X109370000Y-89370000D02*
X109370000Y-84130000D01*
X106630000Y-89370000D02*
X106630000Y-84130000D01*
X157215000Y-138390302D02*
X156415000Y-138390302D01*
X156815000Y-137990302D02*
X156815000Y-138790302D01*
X155033000Y-146481000D02*
X153967000Y-146481000D01*
X155268000Y-146441000D02*
X153732000Y-146441000D01*
X155448000Y-146401000D02*
X153552000Y-146401000D01*
X155598000Y-146361000D02*
X153402000Y-146361000D01*
X155729000Y-146321000D02*
X153271000Y-146321000D01*
X155846000Y-146281000D02*
X153154000Y-146281000D01*
X155953000Y-146241000D02*
X153047000Y-146241000D01*
X156052000Y-146201000D02*
X152948000Y-146201000D01*
X156145000Y-146161000D02*
X152855000Y-146161000D01*
X156231000Y-146121000D02*
X152769000Y-146121000D01*
X156313000Y-146081000D02*
X152687000Y-146081000D01*
X156390000Y-146041000D02*
X152610000Y-146041000D01*
X156464000Y-146001000D02*
X152536000Y-146001000D01*
X156534000Y-145961000D02*
X152466000Y-145961000D01*
X156602000Y-145921000D02*
X152398000Y-145921000D01*
X156666000Y-145881000D02*
X152334000Y-145881000D01*
X156728000Y-145841000D02*
X152272000Y-145841000D01*
X156787000Y-145801000D02*
X152213000Y-145801000D01*
X156845000Y-145761000D02*
X152155000Y-145761000D01*
X156900000Y-145721000D02*
X152100000Y-145721000D01*
X156954000Y-145681000D02*
X152046000Y-145681000D01*
X157005000Y-145641000D02*
X151995000Y-145641000D01*
X157056000Y-145601000D02*
X151944000Y-145601000D01*
X157104000Y-145561000D02*
X151896000Y-145561000D01*
X157151000Y-145521000D02*
X151849000Y-145521000D01*
X157197000Y-145481000D02*
X151803000Y-145481000D01*
X157241000Y-145441000D02*
X151759000Y-145441000D01*
X157284000Y-145401000D02*
X151716000Y-145401000D01*
X157326000Y-145361000D02*
X151674000Y-145361000D01*
X153460000Y-145321000D02*
X151633000Y-145321000D01*
X157367000Y-145321000D02*
X155540000Y-145321000D01*
X153460000Y-145281000D02*
X151593000Y-145281000D01*
X157407000Y-145281000D02*
X155540000Y-145281000D01*
X153460000Y-145241000D02*
X151555000Y-145241000D01*
X157445000Y-145241000D02*
X155540000Y-145241000D01*
X153460000Y-145201000D02*
X151517000Y-145201000D01*
X157483000Y-145201000D02*
X155540000Y-145201000D01*
X153460000Y-145161000D02*
X151481000Y-145161000D01*
X157519000Y-145161000D02*
X155540000Y-145161000D01*
X153460000Y-145121000D02*
X151445000Y-145121000D01*
X157555000Y-145121000D02*
X155540000Y-145121000D01*
X153460000Y-145081000D02*
X151410000Y-145081000D01*
X157590000Y-145081000D02*
X155540000Y-145081000D01*
X153460000Y-145041000D02*
X151376000Y-145041000D01*
X157624000Y-145041000D02*
X155540000Y-145041000D01*
X153460000Y-145001000D02*
X151344000Y-145001000D01*
X157656000Y-145001000D02*
X155540000Y-145001000D01*
X153460000Y-144961000D02*
X151311000Y-144961000D01*
X157689000Y-144961000D02*
X155540000Y-144961000D01*
X153460000Y-144921000D02*
X151280000Y-144921000D01*
X157720000Y-144921000D02*
X155540000Y-144921000D01*
X153460000Y-144881000D02*
X151250000Y-144881000D01*
X157750000Y-144881000D02*
X155540000Y-144881000D01*
X153460000Y-144841000D02*
X151220000Y-144841000D01*
X157780000Y-144841000D02*
X155540000Y-144841000D01*
X153460000Y-144801000D02*
X151191000Y-144801000D01*
X157809000Y-144801000D02*
X155540000Y-144801000D01*
X153460000Y-144761000D02*
X151162000Y-144761000D01*
X157838000Y-144761000D02*
X155540000Y-144761000D01*
X153460000Y-144721000D02*
X151135000Y-144721000D01*
X157865000Y-144721000D02*
X155540000Y-144721000D01*
X153460000Y-144681000D02*
X151108000Y-144681000D01*
X157892000Y-144681000D02*
X155540000Y-144681000D01*
X153460000Y-144641000D02*
X151082000Y-144641000D01*
X157918000Y-144641000D02*
X155540000Y-144641000D01*
X153460000Y-144601000D02*
X151056000Y-144601000D01*
X157944000Y-144601000D02*
X155540000Y-144601000D01*
X153460000Y-144561000D02*
X151031000Y-144561000D01*
X157969000Y-144561000D02*
X155540000Y-144561000D01*
X153460000Y-144521000D02*
X151007000Y-144521000D01*
X157993000Y-144521000D02*
X155540000Y-144521000D01*
X153460000Y-144481000D02*
X150983000Y-144481000D01*
X158017000Y-144481000D02*
X155540000Y-144481000D01*
X153460000Y-144441000D02*
X150960000Y-144441000D01*
X158040000Y-144441000D02*
X155540000Y-144441000D01*
X153460000Y-144401000D02*
X150938000Y-144401000D01*
X158062000Y-144401000D02*
X155540000Y-144401000D01*
X153460000Y-144361000D02*
X150916000Y-144361000D01*
X158084000Y-144361000D02*
X155540000Y-144361000D01*
X153460000Y-144321000D02*
X150894000Y-144321000D01*
X158106000Y-144321000D02*
X155540000Y-144321000D01*
X153460000Y-144281000D02*
X150873000Y-144281000D01*
X158127000Y-144281000D02*
X155540000Y-144281000D01*
X153460000Y-144241000D02*
X150853000Y-144241000D01*
X158147000Y-144241000D02*
X155540000Y-144241000D01*
X153460000Y-144201000D02*
X150834000Y-144201000D01*
X158166000Y-144201000D02*
X155540000Y-144201000D01*
X153460000Y-144161000D02*
X150814000Y-144161000D01*
X158186000Y-144161000D02*
X155540000Y-144161000D01*
X153460000Y-144121000D02*
X150796000Y-144121000D01*
X158204000Y-144121000D02*
X155540000Y-144121000D01*
X153460000Y-144081000D02*
X150778000Y-144081000D01*
X158222000Y-144081000D02*
X155540000Y-144081000D01*
X153460000Y-144041000D02*
X150760000Y-144041000D01*
X158240000Y-144041000D02*
X155540000Y-144041000D01*
X153460000Y-144001000D02*
X150743000Y-144001000D01*
X158257000Y-144001000D02*
X155540000Y-144001000D01*
X153460000Y-143961000D02*
X150726000Y-143961000D01*
X158274000Y-143961000D02*
X155540000Y-143961000D01*
X153460000Y-143921000D02*
X150710000Y-143921000D01*
X158290000Y-143921000D02*
X155540000Y-143921000D01*
X153460000Y-143881000D02*
X150695000Y-143881000D01*
X158305000Y-143881000D02*
X155540000Y-143881000D01*
X153460000Y-143841000D02*
X150679000Y-143841000D01*
X158321000Y-143841000D02*
X155540000Y-143841000D01*
X153460000Y-143801000D02*
X150665000Y-143801000D01*
X158335000Y-143801000D02*
X155540000Y-143801000D01*
X153460000Y-143761000D02*
X150650000Y-143761000D01*
X158350000Y-143761000D02*
X155540000Y-143761000D01*
X153460000Y-143721000D02*
X150637000Y-143721000D01*
X158363000Y-143721000D02*
X155540000Y-143721000D01*
X153460000Y-143681000D02*
X150623000Y-143681000D01*
X158377000Y-143681000D02*
X155540000Y-143681000D01*
X153460000Y-143641000D02*
X150611000Y-143641000D01*
X158389000Y-143641000D02*
X155540000Y-143641000D01*
X153460000Y-143601000D02*
X150598000Y-143601000D01*
X158402000Y-143601000D02*
X155540000Y-143601000D01*
X153460000Y-143561000D02*
X150586000Y-143561000D01*
X158414000Y-143561000D02*
X155540000Y-143561000D01*
X153460000Y-143521000D02*
X150575000Y-143521000D01*
X158425000Y-143521000D02*
X155540000Y-143521000D01*
X153460000Y-143481000D02*
X150564000Y-143481000D01*
X158436000Y-143481000D02*
X155540000Y-143481000D01*
X153460000Y-143441000D02*
X150553000Y-143441000D01*
X158447000Y-143441000D02*
X155540000Y-143441000D01*
X153460000Y-143401000D02*
X150543000Y-143401000D01*
X158457000Y-143401000D02*
X155540000Y-143401000D01*
X153460000Y-143361000D02*
X150533000Y-143361000D01*
X158467000Y-143361000D02*
X155540000Y-143361000D01*
X153460000Y-143321000D02*
X150524000Y-143321000D01*
X158476000Y-143321000D02*
X155540000Y-143321000D01*
X153460000Y-143281000D02*
X150515000Y-143281000D01*
X158485000Y-143281000D02*
X155540000Y-143281000D01*
X158494000Y-143241000D02*
X150506000Y-143241000D01*
X158502000Y-143201000D02*
X150498000Y-143201000D01*
X158510000Y-143161000D02*
X150490000Y-143161000D01*
X158517000Y-143121000D02*
X150483000Y-143121000D01*
X158524000Y-143080000D02*
X150476000Y-143080000D01*
X158530000Y-143040000D02*
X150470000Y-143040000D01*
X158537000Y-143000000D02*
X150463000Y-143000000D01*
X158542000Y-142960000D02*
X150458000Y-142960000D01*
X158548000Y-142920000D02*
X150452000Y-142920000D01*
X158552000Y-142880000D02*
X150448000Y-142880000D01*
X158557000Y-142840000D02*
X150443000Y-142840000D01*
X158561000Y-142800000D02*
X150439000Y-142800000D01*
X158565000Y-142760000D02*
X150435000Y-142760000D01*
X158568000Y-142720000D02*
X150432000Y-142720000D01*
X158571000Y-142680000D02*
X150429000Y-142680000D01*
X158574000Y-142640000D02*
X150426000Y-142640000D01*
X158576000Y-142600000D02*
X150424000Y-142600000D01*
X158577000Y-142560000D02*
X150423000Y-142560000D01*
X158579000Y-142520000D02*
X150421000Y-142520000D01*
X158580000Y-142480000D02*
X150420000Y-142480000D01*
X158580000Y-142440000D02*
X150420000Y-142440000D01*
X158580000Y-142400000D02*
X150420000Y-142400000D01*
X158620000Y-142400000D02*
G75*
G03X158620000Y-142400000I-4120000J0D01*
G01*
X162630000Y-139630000D02*
X165370000Y-139630000D01*
X162630000Y-144870000D02*
X165370000Y-144870000D01*
X165370000Y-144870000D02*
X165370000Y-139630000D01*
X162630000Y-144870000D02*
X162630000Y-139630000D01*
X182130000Y-144870000D02*
X182130000Y-139630000D01*
X184870000Y-144870000D02*
X184870000Y-139630000D01*
X182130000Y-144870000D02*
X184870000Y-144870000D01*
X182130000Y-139630000D02*
X184870000Y-139630000D01*
X194154000Y-139064759D02*
X193524000Y-139064759D01*
X193839000Y-138749759D02*
X193839000Y-139379759D01*
X192402000Y-145491000D02*
X191598000Y-145491000D01*
X192633000Y-145451000D02*
X191367000Y-145451000D01*
X192802000Y-145411000D02*
X191198000Y-145411000D01*
X192940000Y-145371000D02*
X191060000Y-145371000D01*
X193059000Y-145331000D02*
X190941000Y-145331000D01*
X193165000Y-145291000D02*
X190835000Y-145291000D01*
X193262000Y-145251000D02*
X190738000Y-145251000D01*
X193350000Y-145211000D02*
X190650000Y-145211000D01*
X193432000Y-145171000D02*
X190568000Y-145171000D01*
X193509000Y-145131000D02*
X190491000Y-145131000D01*
X193581000Y-145091000D02*
X190419000Y-145091000D01*
X193650000Y-145051000D02*
X190350000Y-145051000D01*
X193714000Y-145011000D02*
X190286000Y-145011000D01*
X193776000Y-144971000D02*
X190224000Y-144971000D01*
X193834000Y-144931000D02*
X190166000Y-144931000D01*
X193890000Y-144891000D02*
X190110000Y-144891000D01*
X193944000Y-144851000D02*
X190056000Y-144851000D01*
X193995000Y-144811000D02*
X190005000Y-144811000D01*
X194044000Y-144771000D02*
X189956000Y-144771000D01*
X194092000Y-144731000D02*
X189908000Y-144731000D01*
X194137000Y-144691000D02*
X189863000Y-144691000D01*
X194182000Y-144651000D02*
X189818000Y-144651000D01*
X194224000Y-144611000D02*
X189776000Y-144611000D01*
X194265000Y-144571000D02*
X189735000Y-144571000D01*
X190960000Y-144531000D02*
X189695000Y-144531000D01*
X194305000Y-144531000D02*
X193040000Y-144531000D01*
X190960000Y-144491000D02*
X189657000Y-144491000D01*
X194343000Y-144491000D02*
X193040000Y-144491000D01*
X190960000Y-144451000D02*
X189620000Y-144451000D01*
X194380000Y-144451000D02*
X193040000Y-144451000D01*
X190960000Y-144411000D02*
X189584000Y-144411000D01*
X194416000Y-144411000D02*
X193040000Y-144411000D01*
X190960000Y-144371000D02*
X189550000Y-144371000D01*
X194450000Y-144371000D02*
X193040000Y-144371000D01*
X190960000Y-144331000D02*
X189516000Y-144331000D01*
X194484000Y-144331000D02*
X193040000Y-144331000D01*
X190960000Y-144291000D02*
X189484000Y-144291000D01*
X194516000Y-144291000D02*
X193040000Y-144291000D01*
X190960000Y-144251000D02*
X189452000Y-144251000D01*
X194548000Y-144251000D02*
X193040000Y-144251000D01*
X190960000Y-144211000D02*
X189422000Y-144211000D01*
X194578000Y-144211000D02*
X193040000Y-144211000D01*
X190960000Y-144171000D02*
X189393000Y-144171000D01*
X194607000Y-144171000D02*
X193040000Y-144171000D01*
X190960000Y-144131000D02*
X189364000Y-144131000D01*
X194636000Y-144131000D02*
X193040000Y-144131000D01*
X190960000Y-144091000D02*
X189336000Y-144091000D01*
X194664000Y-144091000D02*
X193040000Y-144091000D01*
X190960000Y-144051000D02*
X189310000Y-144051000D01*
X194690000Y-144051000D02*
X193040000Y-144051000D01*
X190960000Y-144011000D02*
X189284000Y-144011000D01*
X194716000Y-144011000D02*
X193040000Y-144011000D01*
X190960000Y-143971000D02*
X189258000Y-143971000D01*
X194742000Y-143971000D02*
X193040000Y-143971000D01*
X190960000Y-143931000D02*
X189234000Y-143931000D01*
X194766000Y-143931000D02*
X193040000Y-143931000D01*
X190960000Y-143891000D02*
X189210000Y-143891000D01*
X194790000Y-143891000D02*
X193040000Y-143891000D01*
X190960000Y-143851000D02*
X189188000Y-143851000D01*
X194812000Y-143851000D02*
X193040000Y-143851000D01*
X190960000Y-143811000D02*
X189166000Y-143811000D01*
X194834000Y-143811000D02*
X193040000Y-143811000D01*
X190960000Y-143771000D02*
X189144000Y-143771000D01*
X194856000Y-143771000D02*
X193040000Y-143771000D01*
X190960000Y-143731000D02*
X189124000Y-143731000D01*
X194876000Y-143731000D02*
X193040000Y-143731000D01*
X190960000Y-143691000D02*
X189104000Y-143691000D01*
X194896000Y-143691000D02*
X193040000Y-143691000D01*
X190960000Y-143651000D02*
X189084000Y-143651000D01*
X194916000Y-143651000D02*
X193040000Y-143651000D01*
X190960000Y-143611000D02*
X189066000Y-143611000D01*
X194934000Y-143611000D02*
X193040000Y-143611000D01*
X190960000Y-143571000D02*
X189048000Y-143571000D01*
X194952000Y-143571000D02*
X193040000Y-143571000D01*
X190960000Y-143531000D02*
X189030000Y-143531000D01*
X194970000Y-143531000D02*
X193040000Y-143531000D01*
X190960000Y-143491000D02*
X189014000Y-143491000D01*
X194986000Y-143491000D02*
X193040000Y-143491000D01*
X190960000Y-143451000D02*
X188998000Y-143451000D01*
X195002000Y-143451000D02*
X193040000Y-143451000D01*
X190960000Y-143411000D02*
X188982000Y-143411000D01*
X195018000Y-143411000D02*
X193040000Y-143411000D01*
X190960000Y-143371000D02*
X188967000Y-143371000D01*
X195033000Y-143371000D02*
X193040000Y-143371000D01*
X190960000Y-143331000D02*
X188953000Y-143331000D01*
X195047000Y-143331000D02*
X193040000Y-143331000D01*
X190960000Y-143291000D02*
X188939000Y-143291000D01*
X195061000Y-143291000D02*
X193040000Y-143291000D01*
X190960000Y-143251000D02*
X188926000Y-143251000D01*
X195074000Y-143251000D02*
X193040000Y-143251000D01*
X190960000Y-143211000D02*
X188914000Y-143211000D01*
X195086000Y-143211000D02*
X193040000Y-143211000D01*
X190960000Y-143171000D02*
X188902000Y-143171000D01*
X195098000Y-143171000D02*
X193040000Y-143171000D01*
X190960000Y-143131000D02*
X188890000Y-143131000D01*
X195110000Y-143131000D02*
X193040000Y-143131000D01*
X190960000Y-143091000D02*
X188879000Y-143091000D01*
X195121000Y-143091000D02*
X193040000Y-143091000D01*
X190960000Y-143051000D02*
X188869000Y-143051000D01*
X195131000Y-143051000D02*
X193040000Y-143051000D01*
X190960000Y-143011000D02*
X188859000Y-143011000D01*
X195141000Y-143011000D02*
X193040000Y-143011000D01*
X190960000Y-142971000D02*
X188850000Y-142971000D01*
X195150000Y-142971000D02*
X193040000Y-142971000D01*
X190960000Y-142930000D02*
X188841000Y-142930000D01*
X195159000Y-142930000D02*
X193040000Y-142930000D01*
X190960000Y-142890000D02*
X188833000Y-142890000D01*
X195167000Y-142890000D02*
X193040000Y-142890000D01*
X190960000Y-142850000D02*
X188825000Y-142850000D01*
X195175000Y-142850000D02*
X193040000Y-142850000D01*
X190960000Y-142810000D02*
X188818000Y-142810000D01*
X195182000Y-142810000D02*
X193040000Y-142810000D01*
X190960000Y-142770000D02*
X188811000Y-142770000D01*
X195189000Y-142770000D02*
X193040000Y-142770000D01*
X190960000Y-142730000D02*
X188805000Y-142730000D01*
X195195000Y-142730000D02*
X193040000Y-142730000D01*
X190960000Y-142690000D02*
X188799000Y-142690000D01*
X195201000Y-142690000D02*
X193040000Y-142690000D01*
X190960000Y-142650000D02*
X188794000Y-142650000D01*
X195206000Y-142650000D02*
X193040000Y-142650000D01*
X190960000Y-142610000D02*
X188789000Y-142610000D01*
X195211000Y-142610000D02*
X193040000Y-142610000D01*
X190960000Y-142570000D02*
X188785000Y-142570000D01*
X195215000Y-142570000D02*
X193040000Y-142570000D01*
X190960000Y-142530000D02*
X188782000Y-142530000D01*
X195218000Y-142530000D02*
X193040000Y-142530000D01*
X190960000Y-142490000D02*
X188778000Y-142490000D01*
X195222000Y-142490000D02*
X193040000Y-142490000D01*
X195224000Y-142450000D02*
X188776000Y-142450000D01*
X195227000Y-142410000D02*
X188773000Y-142410000D01*
X195228000Y-142370000D02*
X188772000Y-142370000D01*
X195230000Y-142330000D02*
X188770000Y-142330000D01*
X195230000Y-142290000D02*
X188770000Y-142290000D01*
X195230000Y-142250000D02*
X188770000Y-142250000D01*
X195270000Y-142250000D02*
G75*
G03X195270000Y-142250000I-3270000J0D01*
G01*
X171510000Y-97890000D02*
X166270000Y-97890000D01*
X171510000Y-95150000D02*
X166270000Y-95150000D01*
X171510000Y-97890000D02*
X171510000Y-95150000D01*
X166270000Y-97890000D02*
X166270000Y-95150000D01*
X166271900Y-132078400D02*
X166271900Y-129338400D01*
X171511900Y-132078400D02*
X171511900Y-129338400D01*
X171511900Y-129338400D02*
X166271900Y-129338400D01*
X171511900Y-132078400D02*
X166271900Y-132078400D01*
X146719900Y-140503200D02*
X143779900Y-140503200D01*
X146719900Y-140743200D02*
X143779900Y-140743200D01*
X146719900Y-140623200D02*
X143779900Y-140623200D01*
X143779900Y-145163200D02*
X143909900Y-145163200D01*
X143779900Y-139723200D02*
X143779900Y-145163200D01*
X143909900Y-139723200D02*
X143779900Y-139723200D01*
X146719900Y-145163200D02*
X146589900Y-145163200D01*
X146719900Y-139723200D02*
X146719900Y-145163200D01*
X146589900Y-139723200D02*
X146719900Y-139723200D01*
X137312400Y-136258900D02*
X137312400Y-139058900D01*
X137312400Y-136258900D02*
X114712400Y-136258900D01*
X137312400Y-145858900D02*
X114712400Y-145858900D01*
X137312400Y-143058900D02*
X137312400Y-145858900D01*
X114712400Y-143058900D02*
X114712400Y-145858900D01*
X114712400Y-136258900D02*
X114712400Y-139058900D01*
X135170000Y-70170000D02*
X136500000Y-70170000D01*
X135170000Y-71500000D02*
X135170000Y-70170000D01*
X135170000Y-72770000D02*
X137830000Y-72770000D01*
X137830000Y-72770000D02*
X137830000Y-72830000D01*
X135170000Y-72770000D02*
X135170000Y-72830000D01*
X135170000Y-72830000D02*
X137830000Y-72830000D01*
X130750000Y-54670000D02*
X130750000Y-53340000D01*
X132080000Y-54670000D02*
X130750000Y-54670000D01*
X133350000Y-54670000D02*
X133350000Y-52010000D01*
X133350000Y-52010000D02*
X171510000Y-52010000D01*
X133350000Y-54670000D02*
X171510000Y-54670000D01*
X171510000Y-54670000D02*
X171510000Y-52010000D01*
X154670000Y-118170000D02*
X156000000Y-118170000D01*
X154670000Y-119500000D02*
X154670000Y-118170000D01*
X154670000Y-120770000D02*
X157330000Y-120770000D01*
X157330000Y-120770000D02*
X157330000Y-128450000D01*
X154670000Y-120770000D02*
X154670000Y-128450000D01*
X154670000Y-128450000D02*
X157330000Y-128450000D01*
X154670000Y-115830000D02*
X157330000Y-115830000D01*
X154670000Y-115770000D02*
X154670000Y-115830000D01*
X157330000Y-115770000D02*
X157330000Y-115830000D01*
X154670000Y-115770000D02*
X157330000Y-115770000D01*
X154670000Y-114500000D02*
X154670000Y-113170000D01*
X154670000Y-113170000D02*
X156000000Y-113170000D01*
X194250000Y-121980000D02*
X196910000Y-121980000D01*
X194250000Y-83820000D02*
X194250000Y-121980000D01*
X196910000Y-83820000D02*
X196910000Y-121980000D01*
X194250000Y-83820000D02*
X196910000Y-83820000D01*
X194250000Y-82550000D02*
X194250000Y-81220000D01*
X194250000Y-81220000D02*
X195580000Y-81220000D01*
X194250000Y-74870000D02*
X195580000Y-74870000D01*
X194250000Y-76200000D02*
X194250000Y-74870000D01*
X194250000Y-77470000D02*
X196910000Y-77470000D01*
X196910000Y-77470000D02*
X196910000Y-77530000D01*
X194250000Y-77470000D02*
X194250000Y-77530000D01*
X194250000Y-77530000D02*
X196910000Y-77530000D01*
X129960000Y-125040000D02*
X129960000Y-125370000D01*
X129960000Y-125370000D02*
X123420000Y-125370000D01*
X123420000Y-125370000D02*
X123420000Y-125040000D01*
X129960000Y-122960000D02*
X129960000Y-122630000D01*
X129960000Y-122630000D02*
X123420000Y-122630000D01*
X123420000Y-122630000D02*
X123420000Y-122960000D01*
X123420000Y-119130000D02*
X123420000Y-119460000D01*
X129960000Y-119130000D02*
X123420000Y-119130000D01*
X129960000Y-119460000D02*
X129960000Y-119130000D01*
X123420000Y-121870000D02*
X123420000Y-121540000D01*
X129960000Y-121870000D02*
X123420000Y-121870000D01*
X129960000Y-121540000D02*
X129960000Y-121870000D01*
X121820000Y-66770000D02*
X122150000Y-66770000D01*
X121820000Y-60230000D02*
X121820000Y-66770000D01*
X122150000Y-60230000D02*
X121820000Y-60230000D01*
X124560000Y-66770000D02*
X124230000Y-66770000D01*
X124560000Y-60230000D02*
X124560000Y-66770000D01*
X124230000Y-60230000D02*
X124560000Y-60230000D01*
X130080000Y-72870000D02*
X130080000Y-72540000D01*
X123540000Y-72870000D02*
X130080000Y-72870000D01*
X123540000Y-72540000D02*
X123540000Y-72870000D01*
X130080000Y-70130000D02*
X130080000Y-70460000D01*
X123540000Y-70130000D02*
X130080000Y-70130000D01*
X123540000Y-70460000D02*
X123540000Y-70130000D01*
X128040000Y-60230000D02*
X128370000Y-60230000D01*
X128370000Y-60230000D02*
X128370000Y-66770000D01*
X128370000Y-66770000D02*
X128040000Y-66770000D01*
X125960000Y-60230000D02*
X125630000Y-60230000D01*
X125630000Y-60230000D02*
X125630000Y-66770000D01*
X125630000Y-66770000D02*
X125960000Y-66770000D01*
X129440000Y-66770000D02*
X129770000Y-66770000D01*
X129440000Y-60230000D02*
X129440000Y-66770000D01*
X129770000Y-60230000D02*
X129440000Y-60230000D01*
X132180000Y-66770000D02*
X131850000Y-66770000D01*
X132180000Y-60230000D02*
X132180000Y-66770000D01*
X131850000Y-60230000D02*
X132180000Y-60230000D01*
X135660000Y-60230000D02*
X135990000Y-60230000D01*
X135990000Y-60230000D02*
X135990000Y-66770000D01*
X135990000Y-66770000D02*
X135660000Y-66770000D01*
X133580000Y-60230000D02*
X133250000Y-60230000D01*
X133250000Y-60230000D02*
X133250000Y-66770000D01*
X133250000Y-66770000D02*
X133580000Y-66770000D01*
X137060000Y-66770000D02*
X137390000Y-66770000D01*
X137060000Y-60230000D02*
X137060000Y-66770000D01*
X137390000Y-60230000D02*
X137060000Y-60230000D01*
X139800000Y-66770000D02*
X139470000Y-66770000D01*
X139800000Y-60230000D02*
X139800000Y-66770000D01*
X139470000Y-60230000D02*
X139800000Y-60230000D01*
X143280000Y-60230000D02*
X143610000Y-60230000D01*
X143610000Y-60230000D02*
X143610000Y-66770000D01*
X143610000Y-66770000D02*
X143280000Y-66770000D01*
X141200000Y-60230000D02*
X140870000Y-60230000D01*
X140870000Y-60230000D02*
X140870000Y-66770000D01*
X140870000Y-66770000D02*
X141200000Y-66770000D01*
X144680000Y-66770000D02*
X145010000Y-66770000D01*
X144680000Y-60230000D02*
X144680000Y-66770000D01*
X145010000Y-60230000D02*
X144680000Y-60230000D01*
X147420000Y-66770000D02*
X147090000Y-66770000D01*
X147420000Y-60230000D02*
X147420000Y-66770000D01*
X147090000Y-60230000D02*
X147420000Y-60230000D01*
X150900000Y-60230000D02*
X151230000Y-60230000D01*
X151230000Y-60230000D02*
X151230000Y-66770000D01*
X151230000Y-66770000D02*
X150900000Y-66770000D01*
X148820000Y-60230000D02*
X148490000Y-60230000D01*
X148490000Y-60230000D02*
X148490000Y-66770000D01*
X148490000Y-66770000D02*
X148820000Y-66770000D01*
X152300000Y-66770000D02*
X152630000Y-66770000D01*
X152300000Y-60230000D02*
X152300000Y-66770000D01*
X152630000Y-60230000D02*
X152300000Y-60230000D01*
X155040000Y-66770000D02*
X154710000Y-66770000D01*
X155040000Y-60230000D02*
X155040000Y-66770000D01*
X154710000Y-60230000D02*
X155040000Y-60230000D01*
X156110000Y-66770000D02*
X156440000Y-66770000D01*
X156110000Y-60230000D02*
X156110000Y-66770000D01*
X156440000Y-60230000D02*
X156110000Y-60230000D01*
X158850000Y-66770000D02*
X158520000Y-66770000D01*
X158850000Y-60230000D02*
X158850000Y-66770000D01*
X158520000Y-60230000D02*
X158850000Y-60230000D01*
X159920000Y-66770000D02*
X160250000Y-66770000D01*
X159920000Y-60230000D02*
X159920000Y-66770000D01*
X160250000Y-60230000D02*
X159920000Y-60230000D01*
X162660000Y-66770000D02*
X162330000Y-66770000D01*
X162660000Y-60230000D02*
X162660000Y-66770000D01*
X162330000Y-60230000D02*
X162660000Y-60230000D01*
X166140000Y-60230000D02*
X166470000Y-60230000D01*
X166470000Y-60230000D02*
X166470000Y-66770000D01*
X166470000Y-66770000D02*
X166140000Y-66770000D01*
X164060000Y-60230000D02*
X163730000Y-60230000D01*
X163730000Y-60230000D02*
X163730000Y-66770000D01*
X163730000Y-66770000D02*
X164060000Y-66770000D01*
X167540000Y-66770000D02*
X167870000Y-66770000D01*
X167540000Y-60230000D02*
X167540000Y-66770000D01*
X167870000Y-60230000D02*
X167540000Y-60230000D01*
X170280000Y-66770000D02*
X169950000Y-66770000D01*
X170280000Y-60230000D02*
X170280000Y-66770000D01*
X169950000Y-60230000D02*
X170280000Y-60230000D01*
X173760000Y-60230000D02*
X174090000Y-60230000D01*
X174090000Y-60230000D02*
X174090000Y-66770000D01*
X174090000Y-66770000D02*
X173760000Y-66770000D01*
X171680000Y-60230000D02*
X171350000Y-60230000D01*
X171350000Y-60230000D02*
X171350000Y-66770000D01*
X171350000Y-66770000D02*
X171680000Y-66770000D01*
X175160000Y-66770000D02*
X175490000Y-66770000D01*
X175160000Y-60230000D02*
X175160000Y-66770000D01*
X175490000Y-60230000D02*
X175160000Y-60230000D01*
X177900000Y-66770000D02*
X177570000Y-66770000D01*
X177900000Y-60230000D02*
X177900000Y-66770000D01*
X177570000Y-60230000D02*
X177900000Y-60230000D01*
X181380000Y-60230000D02*
X181710000Y-60230000D01*
X181710000Y-60230000D02*
X181710000Y-66770000D01*
X181710000Y-66770000D02*
X181380000Y-66770000D01*
X179300000Y-60230000D02*
X178970000Y-60230000D01*
X178970000Y-60230000D02*
X178970000Y-66770000D01*
X178970000Y-66770000D02*
X179300000Y-66770000D01*
X117100600Y-92940000D02*
X117100600Y-92610000D01*
X117100600Y-92610000D02*
X123640600Y-92610000D01*
X123640600Y-92610000D02*
X123640600Y-92940000D01*
X117100600Y-95020000D02*
X117100600Y-95350000D01*
X117100600Y-95350000D02*
X123640600Y-95350000D01*
X123640600Y-95350000D02*
X123640600Y-95020000D01*
X117087900Y-89219100D02*
X117087900Y-89549100D01*
X123627900Y-89219100D02*
X117087900Y-89219100D01*
X123627900Y-89549100D02*
X123627900Y-89219100D01*
X117087900Y-91959100D02*
X117087900Y-91629100D01*
X123627900Y-91959100D02*
X117087900Y-91959100D01*
X123627900Y-91629100D02*
X123627900Y-91959100D01*
X110540000Y-73960000D02*
X110540000Y-73630000D01*
X110540000Y-73630000D02*
X117080000Y-73630000D01*
X117080000Y-73630000D02*
X117080000Y-73960000D01*
X110540000Y-76040000D02*
X110540000Y-76370000D01*
X110540000Y-76370000D02*
X117080000Y-76370000D01*
X117080000Y-76370000D02*
X117080000Y-76040000D01*
X104040000Y-70460000D02*
X104040000Y-70130000D01*
X104040000Y-70130000D02*
X110580000Y-70130000D01*
X110580000Y-70130000D02*
X110580000Y-70460000D01*
X104040000Y-72540000D02*
X104040000Y-72870000D01*
X104040000Y-72870000D02*
X110580000Y-72870000D01*
X110580000Y-72870000D02*
X110580000Y-72540000D01*
X187420000Y-74700000D02*
X187420000Y-75030000D01*
X187420000Y-75030000D02*
X180880000Y-75030000D01*
X180880000Y-75030000D02*
X180880000Y-74700000D01*
X187420000Y-72620000D02*
X187420000Y-72290000D01*
X187420000Y-72290000D02*
X180880000Y-72290000D01*
X180880000Y-72290000D02*
X180880000Y-72620000D01*
X180880000Y-76100000D02*
X180880000Y-76430000D01*
X187420000Y-76100000D02*
X180880000Y-76100000D01*
X187420000Y-76430000D02*
X187420000Y-76100000D01*
X180880000Y-78840000D02*
X180880000Y-78510000D01*
X187420000Y-78840000D02*
X180880000Y-78840000D01*
X187420000Y-78510000D02*
X187420000Y-78840000D01*
X187420000Y-82320000D02*
X187420000Y-82650000D01*
X187420000Y-82650000D02*
X180880000Y-82650000D01*
X180880000Y-82650000D02*
X180880000Y-82320000D01*
X187420000Y-80240000D02*
X187420000Y-79910000D01*
X187420000Y-79910000D02*
X180880000Y-79910000D01*
X180880000Y-79910000D02*
X180880000Y-80240000D01*
X180880000Y-83720000D02*
X180880000Y-84050000D01*
X187420000Y-83720000D02*
X180880000Y-83720000D01*
X187420000Y-84050000D02*
X187420000Y-83720000D01*
X180880000Y-86460000D02*
X180880000Y-86130000D01*
X187420000Y-86460000D02*
X180880000Y-86460000D01*
X187420000Y-86130000D02*
X187420000Y-86460000D01*
X187420000Y-89940000D02*
X187420000Y-90270000D01*
X187420000Y-90270000D02*
X180880000Y-90270000D01*
X180880000Y-90270000D02*
X180880000Y-89940000D01*
X187420000Y-87860000D02*
X187420000Y-87530000D01*
X187420000Y-87530000D02*
X180880000Y-87530000D01*
X180880000Y-87530000D02*
X180880000Y-87860000D01*
X180880000Y-91340000D02*
X180880000Y-91670000D01*
X187420000Y-91340000D02*
X180880000Y-91340000D01*
X187420000Y-91670000D02*
X187420000Y-91340000D01*
X180880000Y-94080000D02*
X180880000Y-93750000D01*
X187420000Y-94080000D02*
X180880000Y-94080000D01*
X187420000Y-93750000D02*
X187420000Y-94080000D01*
X180880000Y-95150000D02*
X180880000Y-95480000D01*
X187420000Y-95150000D02*
X180880000Y-95150000D01*
X187420000Y-95480000D02*
X187420000Y-95150000D01*
X180880000Y-97890000D02*
X180880000Y-97560000D01*
X187420000Y-97890000D02*
X180880000Y-97890000D01*
X187420000Y-97560000D02*
X187420000Y-97890000D01*
X187420000Y-101370000D02*
X187420000Y-101700000D01*
X187420000Y-101700000D02*
X180880000Y-101700000D01*
X180880000Y-101700000D02*
X180880000Y-101370000D01*
X187420000Y-99290000D02*
X187420000Y-98960000D01*
X187420000Y-98960000D02*
X180880000Y-98960000D01*
X180880000Y-98960000D02*
X180880000Y-99290000D01*
X180880000Y-102770000D02*
X180880000Y-103100000D01*
X187420000Y-102770000D02*
X180880000Y-102770000D01*
X187420000Y-103100000D02*
X187420000Y-102770000D01*
X180880000Y-105510000D02*
X180880000Y-105180000D01*
X187420000Y-105510000D02*
X180880000Y-105510000D01*
X187420000Y-105180000D02*
X187420000Y-105510000D01*
X187420000Y-108990000D02*
X187420000Y-109320000D01*
X187420000Y-109320000D02*
X180880000Y-109320000D01*
X180880000Y-109320000D02*
X180880000Y-108990000D01*
X187420000Y-106910000D02*
X187420000Y-106580000D01*
X187420000Y-106580000D02*
X180880000Y-106580000D01*
X180880000Y-106580000D02*
X180880000Y-106910000D01*
X180920000Y-110390000D02*
X180920000Y-110720000D01*
X187460000Y-110390000D02*
X180920000Y-110390000D01*
X187460000Y-110720000D02*
X187460000Y-110390000D01*
X180920000Y-113130000D02*
X180920000Y-112800000D01*
X187460000Y-113130000D02*
X180920000Y-113130000D01*
X187460000Y-112800000D02*
X187460000Y-113130000D01*
X187420000Y-116610000D02*
X187420000Y-116940000D01*
X187420000Y-116940000D02*
X180880000Y-116940000D01*
X180880000Y-116940000D02*
X180880000Y-116610000D01*
X187420000Y-114530000D02*
X187420000Y-114200000D01*
X187420000Y-114200000D02*
X180880000Y-114200000D01*
X180880000Y-114200000D02*
X180880000Y-114530000D01*
X187420000Y-120420000D02*
X187420000Y-120750000D01*
X187420000Y-120750000D02*
X180880000Y-120750000D01*
X180880000Y-120750000D02*
X180880000Y-120420000D01*
X187420000Y-118340000D02*
X187420000Y-118010000D01*
X187420000Y-118010000D02*
X180880000Y-118010000D01*
X180880000Y-118010000D02*
X180880000Y-118340000D01*
X180880000Y-121820000D02*
X180880000Y-122150000D01*
X187420000Y-121820000D02*
X180880000Y-121820000D01*
X187420000Y-122150000D02*
X187420000Y-121820000D01*
X180880000Y-124560000D02*
X180880000Y-124230000D01*
X187420000Y-124560000D02*
X180880000Y-124560000D01*
X187420000Y-124230000D02*
X187420000Y-124560000D01*
X187420000Y-128040000D02*
X187420000Y-128370000D01*
X187420000Y-128370000D02*
X180880000Y-128370000D01*
X180880000Y-128370000D02*
X180880000Y-128040000D01*
X187420000Y-125960000D02*
X187420000Y-125630000D01*
X187420000Y-125630000D02*
X180880000Y-125630000D01*
X180880000Y-125630000D02*
X180880000Y-125960000D01*
X180880000Y-129440000D02*
X180880000Y-129770000D01*
X187420000Y-129440000D02*
X180880000Y-129440000D01*
X187420000Y-129770000D02*
X187420000Y-129440000D01*
X180880000Y-132180000D02*
X180880000Y-131850000D01*
X187420000Y-132180000D02*
X180880000Y-132180000D01*
X187420000Y-131850000D02*
X187420000Y-132180000D01*
X104422900Y-135823000D02*
X104422900Y-134493000D01*
X105752900Y-135823000D02*
X104422900Y-135823000D01*
X107022900Y-135823000D02*
X107022900Y-133163000D01*
X107022900Y-133163000D02*
X109622900Y-133163000D01*
X107022900Y-135823000D02*
X109622900Y-135823000D01*
X109622900Y-135823000D02*
X109622900Y-133163000D01*
X128330000Y-108310000D02*
G75*
G02X128330000Y-106310000I0J1000000D01*
G01*
X128330000Y-106310000D02*
X128330000Y-104660000D01*
X128330000Y-104660000D02*
X107890000Y-104660000D01*
X107890000Y-104660000D02*
X107890000Y-109960000D01*
X107890000Y-109960000D02*
X128330000Y-109960000D01*
X128330000Y-109960000D02*
X128330000Y-108310000D01*
X128390000Y-102170000D02*
X107830000Y-102170000D01*
X107830000Y-102170000D02*
X107830000Y-112450000D01*
X107830000Y-112450000D02*
X128390000Y-112450000D01*
X128390000Y-112450000D02*
X128390000Y-102170000D01*
X175891000Y-139730000D02*
X175891000Y-141240000D01*
X172190000Y-139730000D02*
X172190000Y-141240000D01*
X168920000Y-141240000D02*
X179160000Y-141240000D01*
X179160000Y-139730000D02*
X179160000Y-144371000D01*
X168920000Y-139730000D02*
X168920000Y-144371000D01*
X168920000Y-144371000D02*
X179160000Y-144371000D01*
X168920000Y-139730000D02*
X179160000Y-139730000D01*
X163770000Y-92830000D02*
X174050000Y-92830000D01*
X163770000Y-72270000D02*
X163770000Y-92830000D01*
X174050000Y-72270000D02*
X163770000Y-72270000D01*
X174050000Y-92830000D02*
X174050000Y-72270000D01*
X166260000Y-92770000D02*
X167910000Y-92770000D01*
X166260000Y-72330000D02*
X166260000Y-92770000D01*
X171560000Y-72330000D02*
X166260000Y-72330000D01*
X171560000Y-92770000D02*
X171560000Y-72330000D01*
X169910000Y-92770000D02*
X171560000Y-92770000D01*
X167910000Y-92770000D02*
G75*
G02X169910000Y-92770000I1000000J0D01*
G01*
X163770000Y-127120000D02*
X174050000Y-127120000D01*
X163770000Y-106560000D02*
X163770000Y-127120000D01*
X174050000Y-106560000D02*
X163770000Y-106560000D01*
X174050000Y-127120000D02*
X174050000Y-106560000D01*
X166260000Y-127060000D02*
X167910000Y-127060000D01*
X166260000Y-106620000D02*
X166260000Y-127060000D01*
X171560000Y-106620000D02*
X166260000Y-106620000D01*
X171560000Y-127060000D02*
X171560000Y-106620000D01*
X169910000Y-127060000D02*
X171560000Y-127060000D01*
X167910000Y-127060000D02*
G75*
G02X169910000Y-127060000I1000000J0D01*
G01*
X158370000Y-105330000D02*
X158370000Y-102670000D01*
X155770000Y-105330000D02*
X158370000Y-105330000D01*
X155770000Y-102670000D02*
X158370000Y-102670000D01*
X155770000Y-105330000D02*
X155770000Y-102670000D01*
X154500000Y-105330000D02*
X153170000Y-105330000D01*
X153170000Y-105330000D02*
X153170000Y-104000000D01*
X114150000Y-67740000D02*
X114150000Y-71340000D01*
X114877205Y-67215816D02*
G75*
G03X114150000Y-67740000I1122795J-2324184D01*
G01*
X117103842Y-67172801D02*
G75*
G02X118350000Y-68400000I-1103842J-2367199D01*
G01*
X117098371Y-71895457D02*
G75*
G03X118350000Y-70650000I-1098371J2355457D01*
G01*
X114877205Y-71864184D02*
G75*
G02X114150000Y-71340000I1122795J2324184D01*
G01*
D14*
X102786014Y-83631480D02*
X102786014Y-82631480D01*
X103024109Y-82631480D01*
X103166966Y-82679100D01*
X103262204Y-82774338D01*
X103309823Y-82869576D01*
X103357442Y-83060052D01*
X103357442Y-83202909D01*
X103309823Y-83393385D01*
X103262204Y-83488623D01*
X103166966Y-83583861D01*
X103024109Y-83631480D01*
X102786014Y-83631480D01*
X103738395Y-83583861D02*
X103881252Y-83631480D01*
X104119347Y-83631480D01*
X104214585Y-83583861D01*
X104262204Y-83536242D01*
X104309823Y-83441004D01*
X104309823Y-83345766D01*
X104262204Y-83250528D01*
X104214585Y-83202909D01*
X104119347Y-83155290D01*
X103928871Y-83107671D01*
X103833633Y-83060052D01*
X103786014Y-83012433D01*
X103738395Y-82917195D01*
X103738395Y-82821957D01*
X103786014Y-82726719D01*
X103833633Y-82679100D01*
X103928871Y-82631480D01*
X104166966Y-82631480D01*
X104309823Y-82679100D01*
X105262204Y-83631480D02*
X104690776Y-83631480D01*
X104976490Y-83631480D02*
X104976490Y-82631480D01*
X104881252Y-82774338D01*
X104786014Y-82869576D01*
X104690776Y-82917195D01*
D15*
X141525714Y-132246666D02*
X142001904Y-132246666D01*
X141430476Y-132532380D02*
X141763809Y-131532380D01*
X142097142Y-132532380D01*
X142954285Y-132532380D02*
X142382857Y-132532380D01*
X142668571Y-132532380D02*
X142668571Y-131532380D01*
X142573333Y-131675238D01*
X142478095Y-131770476D01*
X142382857Y-131818095D01*
X104954485Y-139571871D02*
X105097342Y-139619490D01*
X105144961Y-139667109D01*
X105192580Y-139762347D01*
X105192580Y-139905204D01*
X105144961Y-140000442D01*
X105097342Y-140048061D01*
X105002104Y-140095680D01*
X104621152Y-140095680D01*
X104621152Y-139095680D01*
X104954485Y-139095680D01*
X105049723Y-139143300D01*
X105097342Y-139190919D01*
X105144961Y-139286157D01*
X105144961Y-139381395D01*
X105097342Y-139476633D01*
X105049723Y-139524252D01*
X104954485Y-139571871D01*
X104621152Y-139571871D01*
X105478295Y-139095680D02*
X106049723Y-139095680D01*
X105764009Y-140095680D02*
X105764009Y-139095680D01*
X106906866Y-140095680D02*
X106335438Y-140095680D01*
X106621152Y-140095680D02*
X106621152Y-139095680D01*
X106525914Y-139238538D01*
X106430676Y-139333776D01*
X106335438Y-139381395D01*
X115260547Y-52760571D02*
X115403404Y-52808190D01*
X115451023Y-52855809D01*
X115498642Y-52951047D01*
X115498642Y-53093904D01*
X115451023Y-53189142D01*
X115403404Y-53236761D01*
X115308166Y-53284380D01*
X114927214Y-53284380D01*
X114927214Y-52284380D01*
X115260547Y-52284380D01*
X115355785Y-52332000D01*
X115403404Y-52379619D01*
X115451023Y-52474857D01*
X115451023Y-52570095D01*
X115403404Y-52665333D01*
X115355785Y-52712952D01*
X115260547Y-52760571D01*
X114927214Y-52760571D01*
X115831976Y-52284380D02*
X116498642Y-52284380D01*
X115831976Y-53284380D01*
X116498642Y-53284380D01*
X117403404Y-53284380D02*
X116831976Y-53284380D01*
X117117690Y-53284380D02*
X117117690Y-52284380D01*
X117022452Y-52427238D01*
X116927214Y-52522476D01*
X116831976Y-52570095D01*
D14*
X104609047Y-56531428D02*
X105370952Y-56531428D01*
X104990000Y-56912380D02*
X104990000Y-56150476D01*
D15*
X124356833Y-116117642D02*
X124309214Y-116165261D01*
X124166357Y-116212880D01*
X124071119Y-116212880D01*
X123928261Y-116165261D01*
X123833023Y-116070023D01*
X123785404Y-115974785D01*
X123737785Y-115784309D01*
X123737785Y-115641452D01*
X123785404Y-115450976D01*
X123833023Y-115355738D01*
X123928261Y-115260500D01*
X124071119Y-115212880D01*
X124166357Y-115212880D01*
X124309214Y-115260500D01*
X124356833Y-115308119D01*
X125309214Y-116212880D02*
X124737785Y-116212880D01*
X125023500Y-116212880D02*
X125023500Y-115212880D01*
X124928261Y-115355738D01*
X124833023Y-115450976D01*
X124737785Y-115498595D01*
X107846833Y-83415142D02*
X107799214Y-83462761D01*
X107656357Y-83510380D01*
X107561119Y-83510380D01*
X107418261Y-83462761D01*
X107323023Y-83367523D01*
X107275404Y-83272285D01*
X107227785Y-83081809D01*
X107227785Y-82938952D01*
X107275404Y-82748476D01*
X107323023Y-82653238D01*
X107418261Y-82558000D01*
X107561119Y-82510380D01*
X107656357Y-82510380D01*
X107799214Y-82558000D01*
X107846833Y-82605619D01*
X108227785Y-82605619D02*
X108275404Y-82558000D01*
X108370642Y-82510380D01*
X108608738Y-82510380D01*
X108703976Y-82558000D01*
X108751595Y-82605619D01*
X108799214Y-82700857D01*
X108799214Y-82796095D01*
X108751595Y-82938952D01*
X108180166Y-83510380D01*
X108799214Y-83510380D01*
X154265333Y-137771142D02*
X154217714Y-137818761D01*
X154074857Y-137866380D01*
X153979619Y-137866380D01*
X153836761Y-137818761D01*
X153741523Y-137723523D01*
X153693904Y-137628285D01*
X153646285Y-137437809D01*
X153646285Y-137294952D01*
X153693904Y-137104476D01*
X153741523Y-137009238D01*
X153836761Y-136914000D01*
X153979619Y-136866380D01*
X154074857Y-136866380D01*
X154217714Y-136914000D01*
X154265333Y-136961619D01*
X154598666Y-136866380D02*
X155217714Y-136866380D01*
X154884380Y-137247333D01*
X155027238Y-137247333D01*
X155122476Y-137294952D01*
X155170095Y-137342571D01*
X155217714Y-137437809D01*
X155217714Y-137675904D01*
X155170095Y-137771142D01*
X155122476Y-137818761D01*
X155027238Y-137866380D01*
X154741523Y-137866380D01*
X154646285Y-137818761D01*
X154598666Y-137771142D01*
X163917333Y-139041142D02*
X163869714Y-139088761D01*
X163726857Y-139136380D01*
X163631619Y-139136380D01*
X163488761Y-139088761D01*
X163393523Y-138993523D01*
X163345904Y-138898285D01*
X163298285Y-138707809D01*
X163298285Y-138564952D01*
X163345904Y-138374476D01*
X163393523Y-138279238D01*
X163488761Y-138184000D01*
X163631619Y-138136380D01*
X163726857Y-138136380D01*
X163869714Y-138184000D01*
X163917333Y-138231619D01*
X164774476Y-138469714D02*
X164774476Y-139136380D01*
X164536380Y-138088761D02*
X164298285Y-138803047D01*
X164917333Y-138803047D01*
X183221333Y-139041142D02*
X183173714Y-139088761D01*
X183030857Y-139136380D01*
X182935619Y-139136380D01*
X182792761Y-139088761D01*
X182697523Y-138993523D01*
X182649904Y-138898285D01*
X182602285Y-138707809D01*
X182602285Y-138564952D01*
X182649904Y-138374476D01*
X182697523Y-138279238D01*
X182792761Y-138184000D01*
X182935619Y-138136380D01*
X183030857Y-138136380D01*
X183173714Y-138184000D01*
X183221333Y-138231619D01*
X184126095Y-138136380D02*
X183649904Y-138136380D01*
X183602285Y-138612571D01*
X183649904Y-138564952D01*
X183745142Y-138517333D01*
X183983238Y-138517333D01*
X184078476Y-138564952D01*
X184126095Y-138612571D01*
X184173714Y-138707809D01*
X184173714Y-138945904D01*
X184126095Y-139041142D01*
X184078476Y-139088761D01*
X183983238Y-139136380D01*
X183745142Y-139136380D01*
X183649904Y-139088761D01*
X183602285Y-139041142D01*
X191857333Y-138533142D02*
X191809714Y-138580761D01*
X191666857Y-138628380D01*
X191571619Y-138628380D01*
X191428761Y-138580761D01*
X191333523Y-138485523D01*
X191285904Y-138390285D01*
X191238285Y-138199809D01*
X191238285Y-138056952D01*
X191285904Y-137866476D01*
X191333523Y-137771238D01*
X191428761Y-137676000D01*
X191571619Y-137628380D01*
X191666857Y-137628380D01*
X191809714Y-137676000D01*
X191857333Y-137723619D01*
X192714476Y-137628380D02*
X192524000Y-137628380D01*
X192428761Y-137676000D01*
X192381142Y-137723619D01*
X192285904Y-137866476D01*
X192238285Y-138056952D01*
X192238285Y-138437904D01*
X192285904Y-138533142D01*
X192333523Y-138580761D01*
X192428761Y-138628380D01*
X192619238Y-138628380D01*
X192714476Y-138580761D01*
X192762095Y-138533142D01*
X192809714Y-138437904D01*
X192809714Y-138199809D01*
X192762095Y-138104571D01*
X192714476Y-138056952D01*
X192619238Y-138009333D01*
X192428761Y-138009333D01*
X192333523Y-138056952D01*
X192285904Y-138104571D01*
X192238285Y-138199809D01*
X168603633Y-99290142D02*
X168556014Y-99337761D01*
X168413157Y-99385380D01*
X168317919Y-99385380D01*
X168175061Y-99337761D01*
X168079823Y-99242523D01*
X168032204Y-99147285D01*
X167984585Y-98956809D01*
X167984585Y-98813952D01*
X168032204Y-98623476D01*
X168079823Y-98528238D01*
X168175061Y-98433000D01*
X168317919Y-98385380D01*
X168413157Y-98385380D01*
X168556014Y-98433000D01*
X168603633Y-98480619D01*
X168936966Y-98385380D02*
X169603633Y-98385380D01*
X169175061Y-99385380D01*
X168603633Y-133516642D02*
X168556014Y-133564261D01*
X168413157Y-133611880D01*
X168317919Y-133611880D01*
X168175061Y-133564261D01*
X168079823Y-133469023D01*
X168032204Y-133373785D01*
X167984585Y-133183309D01*
X167984585Y-133040452D01*
X168032204Y-132849976D01*
X168079823Y-132754738D01*
X168175061Y-132659500D01*
X168317919Y-132611880D01*
X168413157Y-132611880D01*
X168556014Y-132659500D01*
X168603633Y-132707119D01*
X169175061Y-133040452D02*
X169079823Y-132992833D01*
X169032204Y-132945214D01*
X168984585Y-132849976D01*
X168984585Y-132802357D01*
X169032204Y-132707119D01*
X169079823Y-132659500D01*
X169175061Y-132611880D01*
X169365538Y-132611880D01*
X169460776Y-132659500D01*
X169508395Y-132707119D01*
X169556014Y-132802357D01*
X169556014Y-132849976D01*
X169508395Y-132945214D01*
X169460776Y-132992833D01*
X169365538Y-133040452D01*
X169175061Y-133040452D01*
X169079823Y-133088071D01*
X169032204Y-133135690D01*
X168984585Y-133230928D01*
X168984585Y-133421404D01*
X169032204Y-133516642D01*
X169079823Y-133564261D01*
X169175061Y-133611880D01*
X169365538Y-133611880D01*
X169460776Y-133564261D01*
X169508395Y-133516642D01*
X169556014Y-133421404D01*
X169556014Y-133230928D01*
X169508395Y-133135690D01*
X169460776Y-133088071D01*
X169365538Y-133040452D01*
X147314804Y-143008080D02*
X147314804Y-142008080D01*
X147552900Y-142008080D01*
X147695757Y-142055700D01*
X147790995Y-142150938D01*
X147838614Y-142246176D01*
X147886233Y-142436652D01*
X147886233Y-142579509D01*
X147838614Y-142769985D01*
X147790995Y-142865223D01*
X147695757Y-142960461D01*
X147552900Y-143008080D01*
X147314804Y-143008080D01*
X148838614Y-143008080D02*
X148267185Y-143008080D01*
X148552900Y-143008080D02*
X148552900Y-142008080D01*
X148457661Y-142150938D01*
X148362423Y-142246176D01*
X148267185Y-142293795D01*
D14*
X147087995Y-139085580D02*
X147087995Y-138085580D01*
X147659423Y-139085580D02*
X147230852Y-138514152D01*
X147659423Y-138085580D02*
X147087995Y-138657009D01*
D15*
X125729066Y-146987471D02*
X125395733Y-146987471D01*
X125395733Y-147511280D02*
X125395733Y-146511280D01*
X125871923Y-146511280D01*
X126776685Y-147511280D02*
X126205257Y-147511280D01*
X126490971Y-147511280D02*
X126490971Y-146511280D01*
X126395733Y-146654138D01*
X126300495Y-146749376D01*
X126205257Y-146796995D01*
X136128166Y-73366380D02*
X136128166Y-74080666D01*
X136080547Y-74223523D01*
X135985309Y-74318761D01*
X135842452Y-74366380D01*
X135747214Y-74366380D01*
X137128166Y-74366380D02*
X136556738Y-74366380D01*
X136842452Y-74366380D02*
X136842452Y-73366380D01*
X136747214Y-73509238D01*
X136651976Y-73604476D01*
X136556738Y-73652095D01*
X129416666Y-52792380D02*
X129416666Y-53506666D01*
X129369047Y-53649523D01*
X129273809Y-53744761D01*
X129130952Y-53792380D01*
X129035714Y-53792380D01*
X129845238Y-52887619D02*
X129892857Y-52840000D01*
X129988095Y-52792380D01*
X130226190Y-52792380D01*
X130321428Y-52840000D01*
X130369047Y-52887619D01*
X130416666Y-52982857D01*
X130416666Y-53078095D01*
X130369047Y-53220952D01*
X129797619Y-53792380D01*
X130416666Y-53792380D01*
X155666666Y-116622380D02*
X155666666Y-117336666D01*
X155619047Y-117479523D01*
X155523809Y-117574761D01*
X155380952Y-117622380D01*
X155285714Y-117622380D01*
X156047619Y-116622380D02*
X156666666Y-116622380D01*
X156333333Y-117003333D01*
X156476190Y-117003333D01*
X156571428Y-117050952D01*
X156619047Y-117098571D01*
X156666666Y-117193809D01*
X156666666Y-117431904D01*
X156619047Y-117527142D01*
X156571428Y-117574761D01*
X156476190Y-117622380D01*
X156190476Y-117622380D01*
X156095238Y-117574761D01*
X156047619Y-117527142D01*
X155666666Y-111622380D02*
X155666666Y-112336666D01*
X155619047Y-112479523D01*
X155523809Y-112574761D01*
X155380952Y-112622380D01*
X155285714Y-112622380D01*
X156571428Y-111955714D02*
X156571428Y-112622380D01*
X156333333Y-111574761D02*
X156095238Y-112289047D01*
X156714285Y-112289047D01*
X195246666Y-79672380D02*
X195246666Y-80386666D01*
X195199047Y-80529523D01*
X195103809Y-80624761D01*
X194960952Y-80672380D01*
X194865714Y-80672380D01*
X196199047Y-79672380D02*
X195722857Y-79672380D01*
X195675238Y-80148571D01*
X195722857Y-80100952D01*
X195818095Y-80053333D01*
X196056190Y-80053333D01*
X196151428Y-80100952D01*
X196199047Y-80148571D01*
X196246666Y-80243809D01*
X196246666Y-80481904D01*
X196199047Y-80577142D01*
X196151428Y-80624761D01*
X196056190Y-80672380D01*
X195818095Y-80672380D01*
X195722857Y-80624761D01*
X195675238Y-80577142D01*
X195246666Y-73322380D02*
X195246666Y-74036666D01*
X195199047Y-74179523D01*
X195103809Y-74274761D01*
X194960952Y-74322380D01*
X194865714Y-74322380D01*
X196151428Y-73322380D02*
X195960952Y-73322380D01*
X195865714Y-73370000D01*
X195818095Y-73417619D01*
X195722857Y-73560476D01*
X195675238Y-73750952D01*
X195675238Y-74131904D01*
X195722857Y-74227142D01*
X195770476Y-74274761D01*
X195865714Y-74322380D01*
X196056190Y-74322380D01*
X196151428Y-74274761D01*
X196199047Y-74227142D01*
X196246666Y-74131904D01*
X196246666Y-73893809D01*
X196199047Y-73798571D01*
X196151428Y-73750952D01*
X196056190Y-73703333D01*
X195865714Y-73703333D01*
X195770476Y-73750952D01*
X195722857Y-73798571D01*
X195675238Y-73893809D01*
X120026133Y-124493280D02*
X119692800Y-124017090D01*
X119454704Y-124493280D02*
X119454704Y-123493280D01*
X119835657Y-123493280D01*
X119930895Y-123540900D01*
X119978514Y-123588519D01*
X120026133Y-123683757D01*
X120026133Y-123826614D01*
X119978514Y-123921852D01*
X119930895Y-123969471D01*
X119835657Y-124017090D01*
X119454704Y-124017090D01*
X120978514Y-124493280D02*
X120407085Y-124493280D01*
X120692800Y-124493280D02*
X120692800Y-123493280D01*
X120597561Y-123636138D01*
X120502323Y-123731376D01*
X120407085Y-123778995D01*
X120026133Y-121051580D02*
X119692800Y-120575390D01*
X119454704Y-121051580D02*
X119454704Y-120051580D01*
X119835657Y-120051580D01*
X119930895Y-120099200D01*
X119978514Y-120146819D01*
X120026133Y-120242057D01*
X120026133Y-120384914D01*
X119978514Y-120480152D01*
X119930895Y-120527771D01*
X119835657Y-120575390D01*
X119454704Y-120575390D01*
X120407085Y-120146819D02*
X120454704Y-120099200D01*
X120549942Y-120051580D01*
X120788038Y-120051580D01*
X120883276Y-120099200D01*
X120930895Y-120146819D01*
X120978514Y-120242057D01*
X120978514Y-120337295D01*
X120930895Y-120480152D01*
X120359466Y-121051580D01*
X120978514Y-121051580D01*
X123010633Y-57881780D02*
X122677300Y-57405590D01*
X122439204Y-57881780D02*
X122439204Y-56881780D01*
X122820157Y-56881780D01*
X122915395Y-56929400D01*
X122963014Y-56977019D01*
X123010633Y-57072257D01*
X123010633Y-57215114D01*
X122963014Y-57310352D01*
X122915395Y-57357971D01*
X122820157Y-57405590D01*
X122439204Y-57405590D01*
X123343966Y-56881780D02*
X123963014Y-56881780D01*
X123629680Y-57262733D01*
X123772538Y-57262733D01*
X123867776Y-57310352D01*
X123915395Y-57357971D01*
X123963014Y-57453209D01*
X123963014Y-57691304D01*
X123915395Y-57786542D01*
X123867776Y-57834161D01*
X123772538Y-57881780D01*
X123486823Y-57881780D01*
X123391585Y-57834161D01*
X123343966Y-57786542D01*
X126693633Y-74404480D02*
X126360300Y-73928290D01*
X126122204Y-74404480D02*
X126122204Y-73404480D01*
X126503157Y-73404480D01*
X126598395Y-73452100D01*
X126646014Y-73499719D01*
X126693633Y-73594957D01*
X126693633Y-73737814D01*
X126646014Y-73833052D01*
X126598395Y-73880671D01*
X126503157Y-73928290D01*
X126122204Y-73928290D01*
X127550776Y-73737814D02*
X127550776Y-74404480D01*
X127312680Y-73356861D02*
X127074585Y-74071147D01*
X127693633Y-74071147D01*
X126769833Y-57830980D02*
X126436500Y-57354790D01*
X126198404Y-57830980D02*
X126198404Y-56830980D01*
X126579357Y-56830980D01*
X126674595Y-56878600D01*
X126722214Y-56926219D01*
X126769833Y-57021457D01*
X126769833Y-57164314D01*
X126722214Y-57259552D01*
X126674595Y-57307171D01*
X126579357Y-57354790D01*
X126198404Y-57354790D01*
X127674595Y-56830980D02*
X127198404Y-56830980D01*
X127150785Y-57307171D01*
X127198404Y-57259552D01*
X127293642Y-57211933D01*
X127531738Y-57211933D01*
X127626976Y-57259552D01*
X127674595Y-57307171D01*
X127722214Y-57402409D01*
X127722214Y-57640504D01*
X127674595Y-57735742D01*
X127626976Y-57783361D01*
X127531738Y-57830980D01*
X127293642Y-57830980D01*
X127198404Y-57783361D01*
X127150785Y-57735742D01*
X130681433Y-57830980D02*
X130348100Y-57354790D01*
X130110004Y-57830980D02*
X130110004Y-56830980D01*
X130490957Y-56830980D01*
X130586195Y-56878600D01*
X130633814Y-56926219D01*
X130681433Y-57021457D01*
X130681433Y-57164314D01*
X130633814Y-57259552D01*
X130586195Y-57307171D01*
X130490957Y-57354790D01*
X130110004Y-57354790D01*
X131538576Y-56830980D02*
X131348100Y-56830980D01*
X131252861Y-56878600D01*
X131205242Y-56926219D01*
X131110004Y-57069076D01*
X131062385Y-57259552D01*
X131062385Y-57640504D01*
X131110004Y-57735742D01*
X131157623Y-57783361D01*
X131252861Y-57830980D01*
X131443338Y-57830980D01*
X131538576Y-57783361D01*
X131586195Y-57735742D01*
X131633814Y-57640504D01*
X131633814Y-57402409D01*
X131586195Y-57307171D01*
X131538576Y-57259552D01*
X131443338Y-57211933D01*
X131252861Y-57211933D01*
X131157623Y-57259552D01*
X131110004Y-57307171D01*
X131062385Y-57402409D01*
X134516833Y-57792880D02*
X134183500Y-57316690D01*
X133945404Y-57792880D02*
X133945404Y-56792880D01*
X134326357Y-56792880D01*
X134421595Y-56840500D01*
X134469214Y-56888119D01*
X134516833Y-56983357D01*
X134516833Y-57126214D01*
X134469214Y-57221452D01*
X134421595Y-57269071D01*
X134326357Y-57316690D01*
X133945404Y-57316690D01*
X134850166Y-56792880D02*
X135516833Y-56792880D01*
X135088261Y-57792880D01*
X138276033Y-57792880D02*
X137942700Y-57316690D01*
X137704604Y-57792880D02*
X137704604Y-56792880D01*
X138085557Y-56792880D01*
X138180795Y-56840500D01*
X138228414Y-56888119D01*
X138276033Y-56983357D01*
X138276033Y-57126214D01*
X138228414Y-57221452D01*
X138180795Y-57269071D01*
X138085557Y-57316690D01*
X137704604Y-57316690D01*
X138847461Y-57221452D02*
X138752223Y-57173833D01*
X138704604Y-57126214D01*
X138656985Y-57030976D01*
X138656985Y-56983357D01*
X138704604Y-56888119D01*
X138752223Y-56840500D01*
X138847461Y-56792880D01*
X139037938Y-56792880D01*
X139133176Y-56840500D01*
X139180795Y-56888119D01*
X139228414Y-56983357D01*
X139228414Y-57030976D01*
X139180795Y-57126214D01*
X139133176Y-57173833D01*
X139037938Y-57221452D01*
X138847461Y-57221452D01*
X138752223Y-57269071D01*
X138704604Y-57316690D01*
X138656985Y-57411928D01*
X138656985Y-57602404D01*
X138704604Y-57697642D01*
X138752223Y-57745261D01*
X138847461Y-57792880D01*
X139037938Y-57792880D01*
X139133176Y-57745261D01*
X139180795Y-57697642D01*
X139228414Y-57602404D01*
X139228414Y-57411928D01*
X139180795Y-57316690D01*
X139133176Y-57269071D01*
X139037938Y-57221452D01*
X142111433Y-57792880D02*
X141778100Y-57316690D01*
X141540004Y-57792880D02*
X141540004Y-56792880D01*
X141920957Y-56792880D01*
X142016195Y-56840500D01*
X142063814Y-56888119D01*
X142111433Y-56983357D01*
X142111433Y-57126214D01*
X142063814Y-57221452D01*
X142016195Y-57269071D01*
X141920957Y-57316690D01*
X141540004Y-57316690D01*
X142587623Y-57792880D02*
X142778100Y-57792880D01*
X142873338Y-57745261D01*
X142920957Y-57697642D01*
X143016195Y-57554785D01*
X143063814Y-57364309D01*
X143063814Y-56983357D01*
X143016195Y-56888119D01*
X142968576Y-56840500D01*
X142873338Y-56792880D01*
X142682861Y-56792880D01*
X142587623Y-56840500D01*
X142540004Y-56888119D01*
X142492385Y-56983357D01*
X142492385Y-57221452D01*
X142540004Y-57316690D01*
X142587623Y-57364309D01*
X142682861Y-57411928D01*
X142873338Y-57411928D01*
X142968576Y-57364309D01*
X143016195Y-57316690D01*
X143063814Y-57221452D01*
X145432542Y-57767480D02*
X145099209Y-57291290D01*
X144861114Y-57767480D02*
X144861114Y-56767480D01*
X145242066Y-56767480D01*
X145337304Y-56815100D01*
X145384923Y-56862719D01*
X145432542Y-56957957D01*
X145432542Y-57100814D01*
X145384923Y-57196052D01*
X145337304Y-57243671D01*
X145242066Y-57291290D01*
X144861114Y-57291290D01*
X146384923Y-57767480D02*
X145813495Y-57767480D01*
X146099209Y-57767480D02*
X146099209Y-56767480D01*
X146003971Y-56910338D01*
X145908733Y-57005576D01*
X145813495Y-57053195D01*
X147003971Y-56767480D02*
X147099209Y-56767480D01*
X147194447Y-56815100D01*
X147242066Y-56862719D01*
X147289685Y-56957957D01*
X147337304Y-57148433D01*
X147337304Y-57386528D01*
X147289685Y-57577004D01*
X147242066Y-57672242D01*
X147194447Y-57719861D01*
X147099209Y-57767480D01*
X147003971Y-57767480D01*
X146908733Y-57719861D01*
X146861114Y-57672242D01*
X146813495Y-57577004D01*
X146765876Y-57386528D01*
X146765876Y-57148433D01*
X146813495Y-56957957D01*
X146861114Y-56862719D01*
X146908733Y-56815100D01*
X147003971Y-56767480D01*
X149293342Y-57792880D02*
X148960009Y-57316690D01*
X148721914Y-57792880D02*
X148721914Y-56792880D01*
X149102866Y-56792880D01*
X149198104Y-56840500D01*
X149245723Y-56888119D01*
X149293342Y-56983357D01*
X149293342Y-57126214D01*
X149245723Y-57221452D01*
X149198104Y-57269071D01*
X149102866Y-57316690D01*
X148721914Y-57316690D01*
X150245723Y-57792880D02*
X149674295Y-57792880D01*
X149960009Y-57792880D02*
X149960009Y-56792880D01*
X149864771Y-56935738D01*
X149769533Y-57030976D01*
X149674295Y-57078595D01*
X151198104Y-57792880D02*
X150626676Y-57792880D01*
X150912390Y-57792880D02*
X150912390Y-56792880D01*
X150817152Y-56935738D01*
X150721914Y-57030976D01*
X150626676Y-57078595D01*
X153027142Y-57792880D02*
X152693809Y-57316690D01*
X152455714Y-57792880D02*
X152455714Y-56792880D01*
X152836666Y-56792880D01*
X152931904Y-56840500D01*
X152979523Y-56888119D01*
X153027142Y-56983357D01*
X153027142Y-57126214D01*
X152979523Y-57221452D01*
X152931904Y-57269071D01*
X152836666Y-57316690D01*
X152455714Y-57316690D01*
X153979523Y-57792880D02*
X153408095Y-57792880D01*
X153693809Y-57792880D02*
X153693809Y-56792880D01*
X153598571Y-56935738D01*
X153503333Y-57030976D01*
X153408095Y-57078595D01*
X154360476Y-56888119D02*
X154408095Y-56840500D01*
X154503333Y-56792880D01*
X154741428Y-56792880D01*
X154836666Y-56840500D01*
X154884285Y-56888119D01*
X154931904Y-56983357D01*
X154931904Y-57078595D01*
X154884285Y-57221452D01*
X154312857Y-57792880D01*
X154931904Y-57792880D01*
X156862542Y-57792880D02*
X156529209Y-57316690D01*
X156291114Y-57792880D02*
X156291114Y-56792880D01*
X156672066Y-56792880D01*
X156767304Y-56840500D01*
X156814923Y-56888119D01*
X156862542Y-56983357D01*
X156862542Y-57126214D01*
X156814923Y-57221452D01*
X156767304Y-57269071D01*
X156672066Y-57316690D01*
X156291114Y-57316690D01*
X157814923Y-57792880D02*
X157243495Y-57792880D01*
X157529209Y-57792880D02*
X157529209Y-56792880D01*
X157433971Y-56935738D01*
X157338733Y-57030976D01*
X157243495Y-57078595D01*
X158148257Y-56792880D02*
X158767304Y-56792880D01*
X158433971Y-57173833D01*
X158576828Y-57173833D01*
X158672066Y-57221452D01*
X158719685Y-57269071D01*
X158767304Y-57364309D01*
X158767304Y-57602404D01*
X158719685Y-57697642D01*
X158672066Y-57745261D01*
X158576828Y-57792880D01*
X158291114Y-57792880D01*
X158195876Y-57745261D01*
X158148257Y-57697642D01*
X160634442Y-57792880D02*
X160301109Y-57316690D01*
X160063014Y-57792880D02*
X160063014Y-56792880D01*
X160443966Y-56792880D01*
X160539204Y-56840500D01*
X160586823Y-56888119D01*
X160634442Y-56983357D01*
X160634442Y-57126214D01*
X160586823Y-57221452D01*
X160539204Y-57269071D01*
X160443966Y-57316690D01*
X160063014Y-57316690D01*
X161586823Y-57792880D02*
X161015395Y-57792880D01*
X161301109Y-57792880D02*
X161301109Y-56792880D01*
X161205871Y-56935738D01*
X161110633Y-57030976D01*
X161015395Y-57078595D01*
X162443966Y-57126214D02*
X162443966Y-57792880D01*
X162205871Y-56745261D02*
X161967776Y-57459547D01*
X162586823Y-57459547D01*
X164368242Y-57830980D02*
X164034909Y-57354790D01*
X163796814Y-57830980D02*
X163796814Y-56830980D01*
X164177766Y-56830980D01*
X164273004Y-56878600D01*
X164320623Y-56926219D01*
X164368242Y-57021457D01*
X164368242Y-57164314D01*
X164320623Y-57259552D01*
X164273004Y-57307171D01*
X164177766Y-57354790D01*
X163796814Y-57354790D01*
X165320623Y-57830980D02*
X164749195Y-57830980D01*
X165034909Y-57830980D02*
X165034909Y-56830980D01*
X164939671Y-56973838D01*
X164844433Y-57069076D01*
X164749195Y-57116695D01*
X166225385Y-56830980D02*
X165749195Y-56830980D01*
X165701576Y-57307171D01*
X165749195Y-57259552D01*
X165844433Y-57211933D01*
X166082528Y-57211933D01*
X166177766Y-57259552D01*
X166225385Y-57307171D01*
X166273004Y-57402409D01*
X166273004Y-57640504D01*
X166225385Y-57735742D01*
X166177766Y-57783361D01*
X166082528Y-57830980D01*
X165844433Y-57830980D01*
X165749195Y-57783361D01*
X165701576Y-57735742D01*
X168279842Y-57856380D02*
X167946509Y-57380190D01*
X167708414Y-57856380D02*
X167708414Y-56856380D01*
X168089366Y-56856380D01*
X168184604Y-56904000D01*
X168232223Y-56951619D01*
X168279842Y-57046857D01*
X168279842Y-57189714D01*
X168232223Y-57284952D01*
X168184604Y-57332571D01*
X168089366Y-57380190D01*
X167708414Y-57380190D01*
X169232223Y-57856380D02*
X168660795Y-57856380D01*
X168946509Y-57856380D02*
X168946509Y-56856380D01*
X168851271Y-56999238D01*
X168756033Y-57094476D01*
X168660795Y-57142095D01*
X170089366Y-56856380D02*
X169898890Y-56856380D01*
X169803652Y-56904000D01*
X169756033Y-56951619D01*
X169660795Y-57094476D01*
X169613176Y-57284952D01*
X169613176Y-57665904D01*
X169660795Y-57761142D01*
X169708414Y-57808761D01*
X169803652Y-57856380D01*
X169994128Y-57856380D01*
X170089366Y-57808761D01*
X170136985Y-57761142D01*
X170184604Y-57665904D01*
X170184604Y-57427809D01*
X170136985Y-57332571D01*
X170089366Y-57284952D01*
X169994128Y-57237333D01*
X169803652Y-57237333D01*
X169708414Y-57284952D01*
X169660795Y-57332571D01*
X169613176Y-57427809D01*
X172115242Y-57856380D02*
X171781909Y-57380190D01*
X171543814Y-57856380D02*
X171543814Y-56856380D01*
X171924766Y-56856380D01*
X172020004Y-56904000D01*
X172067623Y-56951619D01*
X172115242Y-57046857D01*
X172115242Y-57189714D01*
X172067623Y-57284952D01*
X172020004Y-57332571D01*
X171924766Y-57380190D01*
X171543814Y-57380190D01*
X173067623Y-57856380D02*
X172496195Y-57856380D01*
X172781909Y-57856380D02*
X172781909Y-56856380D01*
X172686671Y-56999238D01*
X172591433Y-57094476D01*
X172496195Y-57142095D01*
X173400957Y-56856380D02*
X174067623Y-56856380D01*
X173639052Y-57856380D01*
X175810942Y-57792880D02*
X175477609Y-57316690D01*
X175239514Y-57792880D02*
X175239514Y-56792880D01*
X175620466Y-56792880D01*
X175715704Y-56840500D01*
X175763323Y-56888119D01*
X175810942Y-56983357D01*
X175810942Y-57126214D01*
X175763323Y-57221452D01*
X175715704Y-57269071D01*
X175620466Y-57316690D01*
X175239514Y-57316690D01*
X176763323Y-57792880D02*
X176191895Y-57792880D01*
X176477609Y-57792880D02*
X176477609Y-56792880D01*
X176382371Y-56935738D01*
X176287133Y-57030976D01*
X176191895Y-57078595D01*
X177334752Y-57221452D02*
X177239514Y-57173833D01*
X177191895Y-57126214D01*
X177144276Y-57030976D01*
X177144276Y-56983357D01*
X177191895Y-56888119D01*
X177239514Y-56840500D01*
X177334752Y-56792880D01*
X177525228Y-56792880D01*
X177620466Y-56840500D01*
X177668085Y-56888119D01*
X177715704Y-56983357D01*
X177715704Y-57030976D01*
X177668085Y-57126214D01*
X177620466Y-57173833D01*
X177525228Y-57221452D01*
X177334752Y-57221452D01*
X177239514Y-57269071D01*
X177191895Y-57316690D01*
X177144276Y-57411928D01*
X177144276Y-57602404D01*
X177191895Y-57697642D01*
X177239514Y-57745261D01*
X177334752Y-57792880D01*
X177525228Y-57792880D01*
X177620466Y-57745261D01*
X177668085Y-57697642D01*
X177715704Y-57602404D01*
X177715704Y-57411928D01*
X177668085Y-57316690D01*
X177620466Y-57269071D01*
X177525228Y-57221452D01*
X179697142Y-57767480D02*
X179363809Y-57291290D01*
X179125714Y-57767480D02*
X179125714Y-56767480D01*
X179506666Y-56767480D01*
X179601904Y-56815100D01*
X179649523Y-56862719D01*
X179697142Y-56957957D01*
X179697142Y-57100814D01*
X179649523Y-57196052D01*
X179601904Y-57243671D01*
X179506666Y-57291290D01*
X179125714Y-57291290D01*
X180649523Y-57767480D02*
X180078095Y-57767480D01*
X180363809Y-57767480D02*
X180363809Y-56767480D01*
X180268571Y-56910338D01*
X180173333Y-57005576D01*
X180078095Y-57053195D01*
X181125714Y-57767480D02*
X181316190Y-57767480D01*
X181411428Y-57719861D01*
X181459047Y-57672242D01*
X181554285Y-57529385D01*
X181601904Y-57338909D01*
X181601904Y-56957957D01*
X181554285Y-56862719D01*
X181506666Y-56815100D01*
X181411428Y-56767480D01*
X181220952Y-56767480D01*
X181125714Y-56815100D01*
X181078095Y-56862719D01*
X181030476Y-56957957D01*
X181030476Y-57196052D01*
X181078095Y-57291290D01*
X181125714Y-57338909D01*
X181220952Y-57386528D01*
X181411428Y-57386528D01*
X181506666Y-57338909D01*
X181554285Y-57291290D01*
X181601904Y-57196052D01*
X126667442Y-94398280D02*
X126334109Y-93922090D01*
X126096014Y-94398280D02*
X126096014Y-93398280D01*
X126476966Y-93398280D01*
X126572204Y-93445900D01*
X126619823Y-93493519D01*
X126667442Y-93588757D01*
X126667442Y-93731614D01*
X126619823Y-93826852D01*
X126572204Y-93874471D01*
X126476966Y-93922090D01*
X126096014Y-93922090D01*
X127048395Y-93493519D02*
X127096014Y-93445900D01*
X127191252Y-93398280D01*
X127429347Y-93398280D01*
X127524585Y-93445900D01*
X127572204Y-93493519D01*
X127619823Y-93588757D01*
X127619823Y-93683995D01*
X127572204Y-93826852D01*
X127000776Y-94398280D01*
X127619823Y-94398280D01*
X128238871Y-93398280D02*
X128334109Y-93398280D01*
X128429347Y-93445900D01*
X128476966Y-93493519D01*
X128524585Y-93588757D01*
X128572204Y-93779233D01*
X128572204Y-94017328D01*
X128524585Y-94207804D01*
X128476966Y-94303042D01*
X128429347Y-94350661D01*
X128334109Y-94398280D01*
X128238871Y-94398280D01*
X128143633Y-94350661D01*
X128096014Y-94303042D01*
X128048395Y-94207804D01*
X128000776Y-94017328D01*
X128000776Y-93779233D01*
X128048395Y-93588757D01*
X128096014Y-93493519D01*
X128143633Y-93445900D01*
X128238871Y-93398280D01*
X126800142Y-91027580D02*
X126466809Y-90551390D01*
X126228714Y-91027580D02*
X126228714Y-90027580D01*
X126609666Y-90027580D01*
X126704904Y-90075200D01*
X126752523Y-90122819D01*
X126800142Y-90218057D01*
X126800142Y-90360914D01*
X126752523Y-90456152D01*
X126704904Y-90503771D01*
X126609666Y-90551390D01*
X126228714Y-90551390D01*
X127181095Y-90122819D02*
X127228714Y-90075200D01*
X127323952Y-90027580D01*
X127562047Y-90027580D01*
X127657285Y-90075200D01*
X127704904Y-90122819D01*
X127752523Y-90218057D01*
X127752523Y-90313295D01*
X127704904Y-90456152D01*
X127133476Y-91027580D01*
X127752523Y-91027580D01*
X128704904Y-91027580D02*
X128133476Y-91027580D01*
X128419190Y-91027580D02*
X128419190Y-90027580D01*
X128323952Y-90170438D01*
X128228714Y-90265676D01*
X128133476Y-90313295D01*
X113098342Y-77896980D02*
X112765009Y-77420790D01*
X112526914Y-77896980D02*
X112526914Y-76896980D01*
X112907866Y-76896980D01*
X113003104Y-76944600D01*
X113050723Y-76992219D01*
X113098342Y-77087457D01*
X113098342Y-77230314D01*
X113050723Y-77325552D01*
X113003104Y-77373171D01*
X112907866Y-77420790D01*
X112526914Y-77420790D01*
X113479295Y-76992219D02*
X113526914Y-76944600D01*
X113622152Y-76896980D01*
X113860247Y-76896980D01*
X113955485Y-76944600D01*
X114003104Y-76992219D01*
X114050723Y-77087457D01*
X114050723Y-77182695D01*
X114003104Y-77325552D01*
X113431676Y-77896980D01*
X114050723Y-77896980D01*
X114431676Y-76992219D02*
X114479295Y-76944600D01*
X114574533Y-76896980D01*
X114812628Y-76896980D01*
X114907866Y-76944600D01*
X114955485Y-76992219D01*
X115003104Y-77087457D01*
X115003104Y-77182695D01*
X114955485Y-77325552D01*
X114384057Y-77896980D01*
X115003104Y-77896980D01*
X106667142Y-69582380D02*
X106333809Y-69106190D01*
X106095714Y-69582380D02*
X106095714Y-68582380D01*
X106476666Y-68582380D01*
X106571904Y-68630000D01*
X106619523Y-68677619D01*
X106667142Y-68772857D01*
X106667142Y-68915714D01*
X106619523Y-69010952D01*
X106571904Y-69058571D01*
X106476666Y-69106190D01*
X106095714Y-69106190D01*
X107048095Y-68677619D02*
X107095714Y-68630000D01*
X107190952Y-68582380D01*
X107429047Y-68582380D01*
X107524285Y-68630000D01*
X107571904Y-68677619D01*
X107619523Y-68772857D01*
X107619523Y-68868095D01*
X107571904Y-69010952D01*
X107000476Y-69582380D01*
X107619523Y-69582380D01*
X107952857Y-68582380D02*
X108571904Y-68582380D01*
X108238571Y-68963333D01*
X108381428Y-68963333D01*
X108476666Y-69010952D01*
X108524285Y-69058571D01*
X108571904Y-69153809D01*
X108571904Y-69391904D01*
X108524285Y-69487142D01*
X108476666Y-69534761D01*
X108381428Y-69582380D01*
X108095714Y-69582380D01*
X108000476Y-69534761D01*
X107952857Y-69487142D01*
X190428642Y-74048880D02*
X190095309Y-73572690D01*
X189857214Y-74048880D02*
X189857214Y-73048880D01*
X190238166Y-73048880D01*
X190333404Y-73096500D01*
X190381023Y-73144119D01*
X190428642Y-73239357D01*
X190428642Y-73382214D01*
X190381023Y-73477452D01*
X190333404Y-73525071D01*
X190238166Y-73572690D01*
X189857214Y-73572690D01*
X190809595Y-73144119D02*
X190857214Y-73096500D01*
X190952452Y-73048880D01*
X191190547Y-73048880D01*
X191285785Y-73096500D01*
X191333404Y-73144119D01*
X191381023Y-73239357D01*
X191381023Y-73334595D01*
X191333404Y-73477452D01*
X190761976Y-74048880D01*
X191381023Y-74048880D01*
X192238166Y-73382214D02*
X192238166Y-74048880D01*
X192000071Y-73001261D02*
X191761976Y-73715547D01*
X192381023Y-73715547D01*
X190428642Y-77922380D02*
X190095309Y-77446190D01*
X189857214Y-77922380D02*
X189857214Y-76922380D01*
X190238166Y-76922380D01*
X190333404Y-76970000D01*
X190381023Y-77017619D01*
X190428642Y-77112857D01*
X190428642Y-77255714D01*
X190381023Y-77350952D01*
X190333404Y-77398571D01*
X190238166Y-77446190D01*
X189857214Y-77446190D01*
X190809595Y-77017619D02*
X190857214Y-76970000D01*
X190952452Y-76922380D01*
X191190547Y-76922380D01*
X191285785Y-76970000D01*
X191333404Y-77017619D01*
X191381023Y-77112857D01*
X191381023Y-77208095D01*
X191333404Y-77350952D01*
X190761976Y-77922380D01*
X191381023Y-77922380D01*
X192285785Y-76922380D02*
X191809595Y-76922380D01*
X191761976Y-77398571D01*
X191809595Y-77350952D01*
X191904833Y-77303333D01*
X192142928Y-77303333D01*
X192238166Y-77350952D01*
X192285785Y-77398571D01*
X192333404Y-77493809D01*
X192333404Y-77731904D01*
X192285785Y-77827142D01*
X192238166Y-77874761D01*
X192142928Y-77922380D01*
X191904833Y-77922380D01*
X191809595Y-77874761D01*
X191761976Y-77827142D01*
X190492142Y-81732380D02*
X190158809Y-81256190D01*
X189920714Y-81732380D02*
X189920714Y-80732380D01*
X190301666Y-80732380D01*
X190396904Y-80780000D01*
X190444523Y-80827619D01*
X190492142Y-80922857D01*
X190492142Y-81065714D01*
X190444523Y-81160952D01*
X190396904Y-81208571D01*
X190301666Y-81256190D01*
X189920714Y-81256190D01*
X190873095Y-80827619D02*
X190920714Y-80780000D01*
X191015952Y-80732380D01*
X191254047Y-80732380D01*
X191349285Y-80780000D01*
X191396904Y-80827619D01*
X191444523Y-80922857D01*
X191444523Y-81018095D01*
X191396904Y-81160952D01*
X190825476Y-81732380D01*
X191444523Y-81732380D01*
X192301666Y-80732380D02*
X192111190Y-80732380D01*
X192015952Y-80780000D01*
X191968333Y-80827619D01*
X191873095Y-80970476D01*
X191825476Y-81160952D01*
X191825476Y-81541904D01*
X191873095Y-81637142D01*
X191920714Y-81684761D01*
X192015952Y-81732380D01*
X192206428Y-81732380D01*
X192301666Y-81684761D01*
X192349285Y-81637142D01*
X192396904Y-81541904D01*
X192396904Y-81303809D01*
X192349285Y-81208571D01*
X192301666Y-81160952D01*
X192206428Y-81113333D01*
X192015952Y-81113333D01*
X191920714Y-81160952D01*
X191873095Y-81208571D01*
X191825476Y-81303809D01*
X190492142Y-85669380D02*
X190158809Y-85193190D01*
X189920714Y-85669380D02*
X189920714Y-84669380D01*
X190301666Y-84669380D01*
X190396904Y-84717000D01*
X190444523Y-84764619D01*
X190492142Y-84859857D01*
X190492142Y-85002714D01*
X190444523Y-85097952D01*
X190396904Y-85145571D01*
X190301666Y-85193190D01*
X189920714Y-85193190D01*
X190873095Y-84764619D02*
X190920714Y-84717000D01*
X191015952Y-84669380D01*
X191254047Y-84669380D01*
X191349285Y-84717000D01*
X191396904Y-84764619D01*
X191444523Y-84859857D01*
X191444523Y-84955095D01*
X191396904Y-85097952D01*
X190825476Y-85669380D01*
X191444523Y-85669380D01*
X191777857Y-84669380D02*
X192444523Y-84669380D01*
X192015952Y-85669380D01*
X190492142Y-89288880D02*
X190158809Y-88812690D01*
X189920714Y-89288880D02*
X189920714Y-88288880D01*
X190301666Y-88288880D01*
X190396904Y-88336500D01*
X190444523Y-88384119D01*
X190492142Y-88479357D01*
X190492142Y-88622214D01*
X190444523Y-88717452D01*
X190396904Y-88765071D01*
X190301666Y-88812690D01*
X189920714Y-88812690D01*
X190873095Y-88384119D02*
X190920714Y-88336500D01*
X191015952Y-88288880D01*
X191254047Y-88288880D01*
X191349285Y-88336500D01*
X191396904Y-88384119D01*
X191444523Y-88479357D01*
X191444523Y-88574595D01*
X191396904Y-88717452D01*
X190825476Y-89288880D01*
X191444523Y-89288880D01*
X192015952Y-88717452D02*
X191920714Y-88669833D01*
X191873095Y-88622214D01*
X191825476Y-88526976D01*
X191825476Y-88479357D01*
X191873095Y-88384119D01*
X191920714Y-88336500D01*
X192015952Y-88288880D01*
X192206428Y-88288880D01*
X192301666Y-88336500D01*
X192349285Y-88384119D01*
X192396904Y-88479357D01*
X192396904Y-88526976D01*
X192349285Y-88622214D01*
X192301666Y-88669833D01*
X192206428Y-88717452D01*
X192015952Y-88717452D01*
X191920714Y-88765071D01*
X191873095Y-88812690D01*
X191825476Y-88907928D01*
X191825476Y-89098404D01*
X191873095Y-89193642D01*
X191920714Y-89241261D01*
X192015952Y-89288880D01*
X192206428Y-89288880D01*
X192301666Y-89241261D01*
X192349285Y-89193642D01*
X192396904Y-89098404D01*
X192396904Y-88907928D01*
X192349285Y-88812690D01*
X192301666Y-88765071D01*
X192206428Y-88717452D01*
X190492142Y-93162380D02*
X190158809Y-92686190D01*
X189920714Y-93162380D02*
X189920714Y-92162380D01*
X190301666Y-92162380D01*
X190396904Y-92210000D01*
X190444523Y-92257619D01*
X190492142Y-92352857D01*
X190492142Y-92495714D01*
X190444523Y-92590952D01*
X190396904Y-92638571D01*
X190301666Y-92686190D01*
X189920714Y-92686190D01*
X190873095Y-92257619D02*
X190920714Y-92210000D01*
X191015952Y-92162380D01*
X191254047Y-92162380D01*
X191349285Y-92210000D01*
X191396904Y-92257619D01*
X191444523Y-92352857D01*
X191444523Y-92448095D01*
X191396904Y-92590952D01*
X190825476Y-93162380D01*
X191444523Y-93162380D01*
X191920714Y-93162380D02*
X192111190Y-93162380D01*
X192206428Y-93114761D01*
X192254047Y-93067142D01*
X192349285Y-92924285D01*
X192396904Y-92733809D01*
X192396904Y-92352857D01*
X192349285Y-92257619D01*
X192301666Y-92210000D01*
X192206428Y-92162380D01*
X192015952Y-92162380D01*
X191920714Y-92210000D01*
X191873095Y-92257619D01*
X191825476Y-92352857D01*
X191825476Y-92590952D01*
X191873095Y-92686190D01*
X191920714Y-92733809D01*
X192015952Y-92781428D01*
X192206428Y-92781428D01*
X192301666Y-92733809D01*
X192349285Y-92686190D01*
X192396904Y-92590952D01*
X190428642Y-96908880D02*
X190095309Y-96432690D01*
X189857214Y-96908880D02*
X189857214Y-95908880D01*
X190238166Y-95908880D01*
X190333404Y-95956500D01*
X190381023Y-96004119D01*
X190428642Y-96099357D01*
X190428642Y-96242214D01*
X190381023Y-96337452D01*
X190333404Y-96385071D01*
X190238166Y-96432690D01*
X189857214Y-96432690D01*
X190761976Y-95908880D02*
X191381023Y-95908880D01*
X191047690Y-96289833D01*
X191190547Y-96289833D01*
X191285785Y-96337452D01*
X191333404Y-96385071D01*
X191381023Y-96480309D01*
X191381023Y-96718404D01*
X191333404Y-96813642D01*
X191285785Y-96861261D01*
X191190547Y-96908880D01*
X190904833Y-96908880D01*
X190809595Y-96861261D01*
X190761976Y-96813642D01*
X192000071Y-95908880D02*
X192095309Y-95908880D01*
X192190547Y-95956500D01*
X192238166Y-96004119D01*
X192285785Y-96099357D01*
X192333404Y-96289833D01*
X192333404Y-96527928D01*
X192285785Y-96718404D01*
X192238166Y-96813642D01*
X192190547Y-96861261D01*
X192095309Y-96908880D01*
X192000071Y-96908880D01*
X191904833Y-96861261D01*
X191857214Y-96813642D01*
X191809595Y-96718404D01*
X191761976Y-96527928D01*
X191761976Y-96289833D01*
X191809595Y-96099357D01*
X191857214Y-96004119D01*
X191904833Y-95956500D01*
X192000071Y-95908880D01*
X190492142Y-100782380D02*
X190158809Y-100306190D01*
X189920714Y-100782380D02*
X189920714Y-99782380D01*
X190301666Y-99782380D01*
X190396904Y-99830000D01*
X190444523Y-99877619D01*
X190492142Y-99972857D01*
X190492142Y-100115714D01*
X190444523Y-100210952D01*
X190396904Y-100258571D01*
X190301666Y-100306190D01*
X189920714Y-100306190D01*
X190825476Y-99782380D02*
X191444523Y-99782380D01*
X191111190Y-100163333D01*
X191254047Y-100163333D01*
X191349285Y-100210952D01*
X191396904Y-100258571D01*
X191444523Y-100353809D01*
X191444523Y-100591904D01*
X191396904Y-100687142D01*
X191349285Y-100734761D01*
X191254047Y-100782380D01*
X190968333Y-100782380D01*
X190873095Y-100734761D01*
X190825476Y-100687142D01*
X192396904Y-100782380D02*
X191825476Y-100782380D01*
X192111190Y-100782380D02*
X192111190Y-99782380D01*
X192015952Y-99925238D01*
X191920714Y-100020476D01*
X191825476Y-100068095D01*
X190428642Y-104592380D02*
X190095309Y-104116190D01*
X189857214Y-104592380D02*
X189857214Y-103592380D01*
X190238166Y-103592380D01*
X190333404Y-103640000D01*
X190381023Y-103687619D01*
X190428642Y-103782857D01*
X190428642Y-103925714D01*
X190381023Y-104020952D01*
X190333404Y-104068571D01*
X190238166Y-104116190D01*
X189857214Y-104116190D01*
X190761976Y-103592380D02*
X191381023Y-103592380D01*
X191047690Y-103973333D01*
X191190547Y-103973333D01*
X191285785Y-104020952D01*
X191333404Y-104068571D01*
X191381023Y-104163809D01*
X191381023Y-104401904D01*
X191333404Y-104497142D01*
X191285785Y-104544761D01*
X191190547Y-104592380D01*
X190904833Y-104592380D01*
X190809595Y-104544761D01*
X190761976Y-104497142D01*
X191761976Y-103687619D02*
X191809595Y-103640000D01*
X191904833Y-103592380D01*
X192142928Y-103592380D01*
X192238166Y-103640000D01*
X192285785Y-103687619D01*
X192333404Y-103782857D01*
X192333404Y-103878095D01*
X192285785Y-104020952D01*
X191714357Y-104592380D01*
X192333404Y-104592380D01*
X190492142Y-108465880D02*
X190158809Y-107989690D01*
X189920714Y-108465880D02*
X189920714Y-107465880D01*
X190301666Y-107465880D01*
X190396904Y-107513500D01*
X190444523Y-107561119D01*
X190492142Y-107656357D01*
X190492142Y-107799214D01*
X190444523Y-107894452D01*
X190396904Y-107942071D01*
X190301666Y-107989690D01*
X189920714Y-107989690D01*
X190825476Y-107465880D02*
X191444523Y-107465880D01*
X191111190Y-107846833D01*
X191254047Y-107846833D01*
X191349285Y-107894452D01*
X191396904Y-107942071D01*
X191444523Y-108037309D01*
X191444523Y-108275404D01*
X191396904Y-108370642D01*
X191349285Y-108418261D01*
X191254047Y-108465880D01*
X190968333Y-108465880D01*
X190873095Y-108418261D01*
X190825476Y-108370642D01*
X191777857Y-107465880D02*
X192396904Y-107465880D01*
X192063571Y-107846833D01*
X192206428Y-107846833D01*
X192301666Y-107894452D01*
X192349285Y-107942071D01*
X192396904Y-108037309D01*
X192396904Y-108275404D01*
X192349285Y-108370642D01*
X192301666Y-108418261D01*
X192206428Y-108465880D01*
X191920714Y-108465880D01*
X191825476Y-108418261D01*
X191777857Y-108370642D01*
X190428642Y-112148880D02*
X190095309Y-111672690D01*
X189857214Y-112148880D02*
X189857214Y-111148880D01*
X190238166Y-111148880D01*
X190333404Y-111196500D01*
X190381023Y-111244119D01*
X190428642Y-111339357D01*
X190428642Y-111482214D01*
X190381023Y-111577452D01*
X190333404Y-111625071D01*
X190238166Y-111672690D01*
X189857214Y-111672690D01*
X190761976Y-111148880D02*
X191381023Y-111148880D01*
X191047690Y-111529833D01*
X191190547Y-111529833D01*
X191285785Y-111577452D01*
X191333404Y-111625071D01*
X191381023Y-111720309D01*
X191381023Y-111958404D01*
X191333404Y-112053642D01*
X191285785Y-112101261D01*
X191190547Y-112148880D01*
X190904833Y-112148880D01*
X190809595Y-112101261D01*
X190761976Y-112053642D01*
X192238166Y-111482214D02*
X192238166Y-112148880D01*
X192000071Y-111101261D02*
X191761976Y-111815547D01*
X192381023Y-111815547D01*
X190365142Y-116022380D02*
X190031809Y-115546190D01*
X189793714Y-116022380D02*
X189793714Y-115022380D01*
X190174666Y-115022380D01*
X190269904Y-115070000D01*
X190317523Y-115117619D01*
X190365142Y-115212857D01*
X190365142Y-115355714D01*
X190317523Y-115450952D01*
X190269904Y-115498571D01*
X190174666Y-115546190D01*
X189793714Y-115546190D01*
X190698476Y-115022380D02*
X191317523Y-115022380D01*
X190984190Y-115403333D01*
X191127047Y-115403333D01*
X191222285Y-115450952D01*
X191269904Y-115498571D01*
X191317523Y-115593809D01*
X191317523Y-115831904D01*
X191269904Y-115927142D01*
X191222285Y-115974761D01*
X191127047Y-116022380D01*
X190841333Y-116022380D01*
X190746095Y-115974761D01*
X190698476Y-115927142D01*
X192222285Y-115022380D02*
X191746095Y-115022380D01*
X191698476Y-115498571D01*
X191746095Y-115450952D01*
X191841333Y-115403333D01*
X192079428Y-115403333D01*
X192174666Y-115450952D01*
X192222285Y-115498571D01*
X192269904Y-115593809D01*
X192269904Y-115831904D01*
X192222285Y-115927142D01*
X192174666Y-115974761D01*
X192079428Y-116022380D01*
X191841333Y-116022380D01*
X191746095Y-115974761D01*
X191698476Y-115927142D01*
X190365142Y-119832380D02*
X190031809Y-119356190D01*
X189793714Y-119832380D02*
X189793714Y-118832380D01*
X190174666Y-118832380D01*
X190269904Y-118880000D01*
X190317523Y-118927619D01*
X190365142Y-119022857D01*
X190365142Y-119165714D01*
X190317523Y-119260952D01*
X190269904Y-119308571D01*
X190174666Y-119356190D01*
X189793714Y-119356190D01*
X190698476Y-118832380D02*
X191317523Y-118832380D01*
X190984190Y-119213333D01*
X191127047Y-119213333D01*
X191222285Y-119260952D01*
X191269904Y-119308571D01*
X191317523Y-119403809D01*
X191317523Y-119641904D01*
X191269904Y-119737142D01*
X191222285Y-119784761D01*
X191127047Y-119832380D01*
X190841333Y-119832380D01*
X190746095Y-119784761D01*
X190698476Y-119737142D01*
X192174666Y-118832380D02*
X191984190Y-118832380D01*
X191888952Y-118880000D01*
X191841333Y-118927619D01*
X191746095Y-119070476D01*
X191698476Y-119260952D01*
X191698476Y-119641904D01*
X191746095Y-119737142D01*
X191793714Y-119784761D01*
X191888952Y-119832380D01*
X192079428Y-119832380D01*
X192174666Y-119784761D01*
X192222285Y-119737142D01*
X192269904Y-119641904D01*
X192269904Y-119403809D01*
X192222285Y-119308571D01*
X192174666Y-119260952D01*
X192079428Y-119213333D01*
X191888952Y-119213333D01*
X191793714Y-119260952D01*
X191746095Y-119308571D01*
X191698476Y-119403809D01*
X190365142Y-123642380D02*
X190031809Y-123166190D01*
X189793714Y-123642380D02*
X189793714Y-122642380D01*
X190174666Y-122642380D01*
X190269904Y-122690000D01*
X190317523Y-122737619D01*
X190365142Y-122832857D01*
X190365142Y-122975714D01*
X190317523Y-123070952D01*
X190269904Y-123118571D01*
X190174666Y-123166190D01*
X189793714Y-123166190D01*
X190698476Y-122642380D02*
X191317523Y-122642380D01*
X190984190Y-123023333D01*
X191127047Y-123023333D01*
X191222285Y-123070952D01*
X191269904Y-123118571D01*
X191317523Y-123213809D01*
X191317523Y-123451904D01*
X191269904Y-123547142D01*
X191222285Y-123594761D01*
X191127047Y-123642380D01*
X190841333Y-123642380D01*
X190746095Y-123594761D01*
X190698476Y-123547142D01*
X191650857Y-122642380D02*
X192317523Y-122642380D01*
X191888952Y-123642380D01*
X190365142Y-127515880D02*
X190031809Y-127039690D01*
X189793714Y-127515880D02*
X189793714Y-126515880D01*
X190174666Y-126515880D01*
X190269904Y-126563500D01*
X190317523Y-126611119D01*
X190365142Y-126706357D01*
X190365142Y-126849214D01*
X190317523Y-126944452D01*
X190269904Y-126992071D01*
X190174666Y-127039690D01*
X189793714Y-127039690D01*
X190698476Y-126515880D02*
X191317523Y-126515880D01*
X190984190Y-126896833D01*
X191127047Y-126896833D01*
X191222285Y-126944452D01*
X191269904Y-126992071D01*
X191317523Y-127087309D01*
X191317523Y-127325404D01*
X191269904Y-127420642D01*
X191222285Y-127468261D01*
X191127047Y-127515880D01*
X190841333Y-127515880D01*
X190746095Y-127468261D01*
X190698476Y-127420642D01*
X191888952Y-126944452D02*
X191793714Y-126896833D01*
X191746095Y-126849214D01*
X191698476Y-126753976D01*
X191698476Y-126706357D01*
X191746095Y-126611119D01*
X191793714Y-126563500D01*
X191888952Y-126515880D01*
X192079428Y-126515880D01*
X192174666Y-126563500D01*
X192222285Y-126611119D01*
X192269904Y-126706357D01*
X192269904Y-126753976D01*
X192222285Y-126849214D01*
X192174666Y-126896833D01*
X192079428Y-126944452D01*
X191888952Y-126944452D01*
X191793714Y-126992071D01*
X191746095Y-127039690D01*
X191698476Y-127134928D01*
X191698476Y-127325404D01*
X191746095Y-127420642D01*
X191793714Y-127468261D01*
X191888952Y-127515880D01*
X192079428Y-127515880D01*
X192174666Y-127468261D01*
X192222285Y-127420642D01*
X192269904Y-127325404D01*
X192269904Y-127134928D01*
X192222285Y-127039690D01*
X192174666Y-126992071D01*
X192079428Y-126944452D01*
X190365142Y-131262380D02*
X190031809Y-130786190D01*
X189793714Y-131262380D02*
X189793714Y-130262380D01*
X190174666Y-130262380D01*
X190269904Y-130310000D01*
X190317523Y-130357619D01*
X190365142Y-130452857D01*
X190365142Y-130595714D01*
X190317523Y-130690952D01*
X190269904Y-130738571D01*
X190174666Y-130786190D01*
X189793714Y-130786190D01*
X190698476Y-130262380D02*
X191317523Y-130262380D01*
X190984190Y-130643333D01*
X191127047Y-130643333D01*
X191222285Y-130690952D01*
X191269904Y-130738571D01*
X191317523Y-130833809D01*
X191317523Y-131071904D01*
X191269904Y-131167142D01*
X191222285Y-131214761D01*
X191127047Y-131262380D01*
X190841333Y-131262380D01*
X190746095Y-131214761D01*
X190698476Y-131167142D01*
X191793714Y-131262380D02*
X191984190Y-131262380D01*
X192079428Y-131214761D01*
X192127047Y-131167142D01*
X192222285Y-131024285D01*
X192269904Y-130833809D01*
X192269904Y-130452857D01*
X192222285Y-130357619D01*
X192174666Y-130310000D01*
X192079428Y-130262380D01*
X191888952Y-130262380D01*
X191793714Y-130310000D01*
X191746095Y-130357619D01*
X191698476Y-130452857D01*
X191698476Y-130690952D01*
X191746095Y-130786190D01*
X191793714Y-130833809D01*
X191888952Y-130881428D01*
X192079428Y-130881428D01*
X192174666Y-130833809D01*
X192222285Y-130786190D01*
X192269904Y-130690952D01*
X105683566Y-132541761D02*
X105826423Y-132589380D01*
X106064519Y-132589380D01*
X106159757Y-132541761D01*
X106207376Y-132494142D01*
X106254995Y-132398904D01*
X106254995Y-132303666D01*
X106207376Y-132208428D01*
X106159757Y-132160809D01*
X106064519Y-132113190D01*
X105874042Y-132065571D01*
X105778804Y-132017952D01*
X105731185Y-131970333D01*
X105683566Y-131875095D01*
X105683566Y-131779857D01*
X105731185Y-131684619D01*
X105778804Y-131637000D01*
X105874042Y-131589380D01*
X106112138Y-131589380D01*
X106254995Y-131637000D01*
X106588328Y-131589380D02*
X106826423Y-132589380D01*
X107016900Y-131875095D01*
X107207376Y-132589380D01*
X107445471Y-131589380D01*
X107778804Y-131684619D02*
X107826423Y-131637000D01*
X107921661Y-131589380D01*
X108159757Y-131589380D01*
X108254995Y-131637000D01*
X108302614Y-131684619D01*
X108350233Y-131779857D01*
X108350233Y-131875095D01*
X108302614Y-132017952D01*
X107731185Y-132589380D01*
X108350233Y-132589380D01*
X129095595Y-106767380D02*
X129095595Y-107576904D01*
X129143214Y-107672142D01*
X129190833Y-107719761D01*
X129286071Y-107767380D01*
X129476547Y-107767380D01*
X129571785Y-107719761D01*
X129619404Y-107672142D01*
X129667023Y-107576904D01*
X129667023Y-106767380D01*
X130667023Y-107767380D02*
X130095595Y-107767380D01*
X130381309Y-107767380D02*
X130381309Y-106767380D01*
X130286071Y-106910238D01*
X130190833Y-107005476D01*
X130095595Y-107053095D01*
X173278095Y-138182380D02*
X173278095Y-138991904D01*
X173325714Y-139087142D01*
X173373333Y-139134761D01*
X173468571Y-139182380D01*
X173659047Y-139182380D01*
X173754285Y-139134761D01*
X173801904Y-139087142D01*
X173849523Y-138991904D01*
X173849523Y-138182380D01*
X174278095Y-138277619D02*
X174325714Y-138230000D01*
X174420952Y-138182380D01*
X174659047Y-138182380D01*
X174754285Y-138230000D01*
X174801904Y-138277619D01*
X174849523Y-138372857D01*
X174849523Y-138468095D01*
X174801904Y-138610952D01*
X174230476Y-139182380D01*
X174849523Y-139182380D01*
X168148095Y-93222380D02*
X168148095Y-94031904D01*
X168195714Y-94127142D01*
X168243333Y-94174761D01*
X168338571Y-94222380D01*
X168529047Y-94222380D01*
X168624285Y-94174761D01*
X168671904Y-94127142D01*
X168719523Y-94031904D01*
X168719523Y-93222380D01*
X169100476Y-93222380D02*
X169719523Y-93222380D01*
X169386190Y-93603333D01*
X169529047Y-93603333D01*
X169624285Y-93650952D01*
X169671904Y-93698571D01*
X169719523Y-93793809D01*
X169719523Y-94031904D01*
X169671904Y-94127142D01*
X169624285Y-94174761D01*
X169529047Y-94222380D01*
X169243333Y-94222380D01*
X169148095Y-94174761D01*
X169100476Y-94127142D01*
X168148095Y-127512380D02*
X168148095Y-128321904D01*
X168195714Y-128417142D01*
X168243333Y-128464761D01*
X168338571Y-128512380D01*
X168529047Y-128512380D01*
X168624285Y-128464761D01*
X168671904Y-128417142D01*
X168719523Y-128321904D01*
X168719523Y-127512380D01*
X169624285Y-127845714D02*
X169624285Y-128512380D01*
X169386190Y-127464761D02*
X169148095Y-128179047D01*
X169767142Y-128179047D01*
X154559166Y-101877761D02*
X154702023Y-101925380D01*
X154940119Y-101925380D01*
X155035357Y-101877761D01*
X155082976Y-101830142D01*
X155130595Y-101734904D01*
X155130595Y-101639666D01*
X155082976Y-101544428D01*
X155035357Y-101496809D01*
X154940119Y-101449190D01*
X154749642Y-101401571D01*
X154654404Y-101353952D01*
X154606785Y-101306333D01*
X154559166Y-101211095D01*
X154559166Y-101115857D01*
X154606785Y-101020619D01*
X154654404Y-100973000D01*
X154749642Y-100925380D01*
X154987738Y-100925380D01*
X155130595Y-100973000D01*
X155463928Y-100925380D02*
X155702023Y-101925380D01*
X155892500Y-101211095D01*
X156082976Y-101925380D01*
X156321071Y-100925380D01*
X157225833Y-101925380D02*
X156654404Y-101925380D01*
X156940119Y-101925380D02*
X156940119Y-100925380D01*
X156844880Y-101068238D01*
X156749642Y-101163476D01*
X156654404Y-101211095D01*
X119233961Y-66930519D02*
X119138723Y-66882900D01*
X119043485Y-66787661D01*
X118900628Y-66644804D01*
X118805390Y-66597185D01*
X118710152Y-66597185D01*
X118757771Y-66835280D02*
X118662533Y-66787661D01*
X118567295Y-66692423D01*
X118519676Y-66501947D01*
X118519676Y-66168614D01*
X118567295Y-65978138D01*
X118662533Y-65882900D01*
X118757771Y-65835280D01*
X118948247Y-65835280D01*
X119043485Y-65882900D01*
X119138723Y-65978138D01*
X119186342Y-66168614D01*
X119186342Y-66501947D01*
X119138723Y-66692423D01*
X119043485Y-66787661D01*
X118948247Y-66835280D01*
X118757771Y-66835280D01*
X120138723Y-66835280D02*
X119567295Y-66835280D01*
X119853009Y-66835280D02*
X119853009Y-65835280D01*
X119757771Y-65978138D01*
X119662533Y-66073376D01*
X119567295Y-66120995D01*
M02*
